<svg version="1.1" xmlns="http://www.w3.org/2000/svg" xmlns:xlink="http://www.w3.org/1999/xlink" width="944.611328125" height="831"><defs/><g><g transform="translate(-30,-54) scale(1,1)"><rect fill="#C0C0C0" stroke="none" x="47" y="239" width="209.1708984375" height="107" opacity="0.2"/></g><g transform="translate(-30,-54) scale(1,1)"><rect fill="#ffffff" stroke="none" x="40" y="232" width="209.1708984375" height="107"/></g><g transform="translate(-30,-54) scale(1,1)"><path fill="none" stroke="#000000" d="M 40 232 L 249.1708984375 232 L 249.1708984375 339 L 40 339 L 40 232 Z Z" stroke-miterlimit="10"/></g><g transform="translate(-30,-54) scale(1,1)"><path fill="none" stroke="#000000" d="M 40 262 L 249.1708984375 262" stroke-miterlimit="10"/></g><g transform="translate(-30,-54) scale(1,1)"><path fill="none" stroke="#000000" d="M 40 330 L 249.1708984375 330" stroke-miterlimit="10"/></g><g transform="translate(-30,-54) scale(1,1)"><g><path fill="none" stroke="none"/><text fill="#000000" stroke="none" font-family="Roboto" font-size="18px" font-style="normal" font-weight="bold" text-decoration="none" x="114.62353515625" y="256.5">Receipt</text></g></g><g transform="translate(-30,-54) scale(1,1)"><g><path fill="none" stroke="none"/><text fill="#000000" stroke="none" font-family="Roboto" font-size="18px" font-style="normal" font-weight="normal" text-decoration="none" x="45" y="284.5">-id: int</text></g></g><g transform="translate(-30,-54) scale(1,1)"><g><path fill="none" stroke="none"/><text fill="#000000" stroke="none" font-family="Roboto" font-size="18px" font-style="normal" font-weight="normal" text-decoration="none" x="45" y="304.5">-created_date: DateTime</text></g></g><g transform="translate(-30,-54) scale(1,1)"><g><path fill="none" stroke="none"/><text fill="#000000" stroke="none" font-family="Roboto" font-size="18px" font-style="normal" font-weight="normal" text-decoration="none" x="45" y="324.5">-customer_id: int</text></g></g><g transform="translate(-30,-54) scale(1,1)"><rect fill="#C0C0C0" stroke="none" x="55" y="471" width="192.2431640625" height="267" opacity="0.2"/></g><g transform="translate(-30,-54) scale(1,1)"><rect fill="#ffffff" stroke="none" x="48" y="464" width="192.2431640625" height="267"/></g><g transform="translate(-30,-54) scale(1,1)"><path fill="none" stroke="#000000" d="M 48 464 L 240.2431640625 464 L 240.2431640625 731 L 48 731 L 48 464 Z Z" stroke-miterlimit="10"/></g><g transform="translate(-30,-54) scale(1,1)"><path fill="none" stroke="#000000" d="M 48 494 L 240.2431640625 494" stroke-miterlimit="10"/></g><g transform="translate(-30,-54) scale(1,1)"><path fill="none" stroke="#000000" d="M 48 722 L 240.2431640625 722" stroke-miterlimit="10"/></g><g transform="translate(-30,-54) scale(1,1)"><g><path fill="none" stroke="none"/><text fill="#000000" stroke="none" font-family="Roboto" font-size="18px" font-style="normal" font-weight="bold" text-decoration="none" x="104.97509765625" y="488.5">Customer</text></g></g><g transform="translate(-30,-54) scale(1,1)"><g><path fill="none" stroke="none"/><text fill="#000000" stroke="none" font-family="Roboto" font-size="18px" font-style="normal" font-weight="normal" text-decoration="none" x="53" y="516.5">-id: int</text></g></g><g transform="translate(-30,-54) scale(1,1)"><g><path fill="none" stroke="none"/><text fill="#000000" stroke="none" font-family="Roboto" font-size="18px" font-style="normal" font-weight="normal" text-decoration="none" x="53" y="536.5">-username: String</text></g></g><g transform="translate(-30,-54) scale(1,1)"><g><path fill="none" stroke="none"/><text fill="#000000" stroke="none" font-family="Roboto" font-size="18px" font-style="normal" font-weight="normal" text-decoration="none" x="53" y="556.5">-password: String</text></g></g><g transform="translate(-30,-54) scale(1,1)"><g><path fill="none" stroke="none"/><text fill="#000000" stroke="none" font-family="Roboto" font-size="18px" font-style="normal" font-weight="normal" text-decoration="none" x="53" y="576.5">-name: String</text></g></g><g transform="translate(-30,-54) scale(1,1)"><g><path fill="none" stroke="none"/><text fill="#000000" stroke="none" font-family="Roboto" font-size="18px" font-style="normal" font-weight="normal" text-decoration="none" x="53" y="596.5">-email: String</text></g></g><g transform="translate(-30,-54) scale(1,1)"><g><path fill="none" stroke="none"/><text fill="#000000" stroke="none" font-family="Roboto" font-size="18px" font-style="normal" font-weight="normal" text-decoration="none" x="53" y="616.5">-address: String</text></g></g><g transform="translate(-30,-54) scale(1,1)"><g><path fill="none" stroke="none"/><text fill="#000000" stroke="none" font-family="Roboto" font-size="18px" font-style="normal" font-weight="normal" text-decoration="none" x="53" y="636.5">-phone: String</text></g></g><g transform="translate(-30,-54) scale(1,1)"><g><path fill="none" stroke="none"/><text fill="#000000" stroke="none" font-family="Roboto" font-size="18px" font-style="normal" font-weight="normal" text-decoration="none" x="53" y="656.5">-avatar: String</text></g></g><g transform="translate(-30,-54) scale(1,1)"><g><path fill="none" stroke="none"/><text fill="#000000" stroke="none" font-family="Roboto" font-size="18px" font-style="normal" font-weight="normal" text-decoration="none" x="53" y="676.5">-active: boolean</text></g></g><g transform="translate(-30,-54) scale(1,1)"><g><path fill="none" stroke="none"/><text fill="#000000" stroke="none" font-family="Roboto" font-size="18px" font-style="normal" font-weight="normal" text-decoration="none" x="53" y="696.5">-user_role: Enum</text></g></g><g transform="translate(-30,-54) scale(1,1)"><g><path fill="none" stroke="none"/><text fill="#000000" stroke="none" font-family="Roboto" font-size="18px" font-style="normal" font-weight="normal" text-decoration="none" x="53" y="716.5">-joined_date: DateTime</text></g></g><g transform="translate(-30,-54) scale(1,1)"><rect fill="#C0C0C0" stroke="none" x="431" y="191" width="159.22265625" height="207" opacity="0.2"/></g><g transform="translate(-30,-54) scale(1,1)"><rect fill="#ffffff" stroke="none" x="424" y="184" width="159.22265625" height="207"/></g><g transform="translate(-30,-54) scale(1,1)"><path fill="none" stroke="#000000" d="M 424 184 L 583.22265625 184 L 583.22265625 391 L 424 391 L 424 184 Z Z" stroke-miterlimit="10"/></g><g transform="translate(-30,-54) scale(1,1)"><path fill="none" stroke="#000000" d="M 424 214 L 583.22265625 214" stroke-miterlimit="10"/></g><g transform="translate(-30,-54) scale(1,1)"><path fill="none" stroke="#000000" d="M 424 382 L 583.22265625 382" stroke-miterlimit="10"/></g><g transform="translate(-30,-54) scale(1,1)"><g><path fill="none" stroke="none"/><text fill="#000000" stroke="none" font-family="Roboto" font-size="18px" font-style="normal" font-weight="bold" text-decoration="none" x="472.1552734375" y="208.5">Product</text></g></g><g transform="translate(-30,-54) scale(1,1)"><g><path fill="none" stroke="none"/><text fill="#000000" stroke="none" font-family="Roboto" font-size="18px" font-style="normal" font-weight="normal" text-decoration="none" x="429" y="236.5">-id: int</text></g></g><g transform="translate(-30,-54) scale(1,1)"><g><path fill="none" stroke="none"/><text fill="#000000" stroke="none" font-family="Roboto" font-size="18px" font-style="normal" font-weight="normal" text-decoration="none" x="429" y="256.5">-name: String</text></g></g><g transform="translate(-30,-54) scale(1,1)"><g><path fill="none" stroke="none"/><text fill="#000000" stroke="none" font-family="Roboto" font-size="18px" font-style="normal" font-weight="normal" text-decoration="none" x="429" y="276.5">-description: String</text></g></g><g transform="translate(-30,-54) scale(1,1)"><g><path fill="none" stroke="none"/><text fill="#000000" stroke="none" font-family="Roboto" font-size="18px" font-style="normal" font-weight="normal" text-decoration="none" x="429" y="296.5">-price: float</text></g></g><g transform="translate(-30,-54) scale(1,1)"><g><path fill="none" stroke="none"/><text fill="#000000" stroke="none" font-family="Roboto" font-size="18px" font-style="normal" font-weight="normal" text-decoration="none" x="429" y="316.5">-image: String</text></g></g><g transform="translate(-30,-54) scale(1,1)"><g><path fill="none" stroke="none"/><text fill="#000000" stroke="none" font-family="Roboto" font-size="18px" font-style="normal" font-weight="normal" text-decoration="none" x="429" y="336.5">-catgory_id: int</text></g></g><g transform="translate(-30,-54) scale(1,1)"><g><path fill="none" stroke="none"/><text fill="#000000" stroke="none" font-family="Roboto" font-size="18px" font-style="normal" font-weight="normal" text-decoration="none" x="429" y="356.5">-author_id: int</text></g></g><g transform="translate(-30,-54) scale(1,1)"><g><path fill="none" stroke="none"/><text fill="#000000" stroke="none" font-family="Roboto" font-size="18px" font-style="normal" font-weight="normal" text-decoration="none" x="429" y="376.5">-quantity: int</text></g></g><g transform="translate(-30,-54) scale(1,1)"><path fill="none" stroke="#000000" d="M 249 280 L 424 280" stroke-miterlimit="10"/></g><g transform="translate(-30,-54) scale(1,1)"><g><path fill="none" stroke="none"/><text fill="#000000" stroke="none" font-family="Roboto" font-size="18px" font-style="normal" font-weight="normal" text-decoration="none" x="255.5" y="270.5">0..*</text></g></g><g transform="translate(-30,-54) scale(1,1)"><g><path fill="none" stroke="none"/><text fill="#000000" stroke="none" font-family="Roboto" font-size="18px" font-style="normal" font-weight="normal" text-decoration="none" x="391.5" y="271.5">1..*</text></g></g><g transform="translate(-30,-54) scale(1,1)"><path fill="none" stroke="#000000" d="M 144 339 L 144 464" stroke-miterlimit="10"/></g><g transform="translate(-30,-54) scale(1,1)"><path fill="#FFFFFF" stroke="none" d="M 139.790482243984 453.83732514237585 L 144 464 L 148.209517756016 453.83732514237585 L 144 442"/></g><g transform="translate(-30,-54) scale(1,1)"><path fill="none" stroke="#000000" d="M 139.790482243984 453.83732514237585 L 144 464 L 148.209517756016 453.83732514237585 L 144 442 L 139.790482243984 453.83732514237585" stroke-miterlimit="10"/></g><g transform="translate(-30,-54) scale(1,1)"><g><path fill="none" stroke="none"/><text fill="#000000" stroke="none" font-family="Roboto" font-size="18px" font-style="normal" font-weight="normal" text-decoration="none" x="108.5" y="367.5">1..*</text></g></g><g transform="translate(-30,-54) scale(1,1)"><g><path fill="none" stroke="none"/><text fill="#000000" stroke="none" font-family="Roboto" font-size="18px" font-style="normal" font-weight="normal" text-decoration="none" x="125.5" y="450.5">1</text></g></g><g transform="translate(-30,-54) scale(1,1)"><rect fill="#C0C0C0" stroke="none" x="279" y="71" width="127.2568359375" height="147" opacity="0.2"/></g><g transform="translate(-30,-54) scale(1,1)"><rect fill="#ffffff" stroke="none" x="272" y="64" width="127.2568359375" height="147"/></g><g transform="translate(-30,-54) scale(1,1)"><path fill="none" stroke="#000000" d="M 272 64 L 399.2568359375 64 L 399.2568359375 211 L 272 211 L 272 64 Z Z" stroke-miterlimit="10"/></g><g transform="translate(-30,-54) scale(1,1)"><path fill="none" stroke="#000000" d="M 272 94 L 399.2568359375 94" stroke-miterlimit="10"/></g><g transform="translate(-30,-54) scale(1,1)"><path fill="none" stroke="#000000" d="M 272 202 L 399.2568359375 202" stroke-miterlimit="10"/></g><g transform="translate(-30,-54) scale(1,1)"><g><path fill="none" stroke="none"/><text fill="#000000" stroke="none" font-family="Roboto" font-size="18px" font-style="normal" font-weight="bold" text-decoration="none" x="282.79296875" y="88.5">ReceiptDetail</text></g></g><g transform="translate(-30,-54) scale(1,1)"><g><path fill="none" stroke="none"/><text fill="#000000" stroke="none" font-family="Roboto" font-size="18px" font-style="normal" font-weight="normal" text-decoration="none" x="277" y="116.5">-id: int</text></g></g><g transform="translate(-30,-54) scale(1,1)"><g><path fill="none" stroke="none"/><text fill="#000000" stroke="none" font-family="Roboto" font-size="18px" font-style="normal" font-weight="normal" text-decoration="none" x="277" y="136.5">-receipt_id: int</text></g></g><g transform="translate(-30,-54) scale(1,1)"><g><path fill="none" stroke="none"/><text fill="#000000" stroke="none" font-family="Roboto" font-size="18px" font-style="normal" font-weight="normal" text-decoration="none" x="277" y="156.5">-product_id: int</text></g></g><g transform="translate(-30,-54) scale(1,1)"><g><path fill="none" stroke="none"/><text fill="#000000" stroke="none" font-family="Roboto" font-size="18px" font-style="normal" font-weight="normal" text-decoration="none" x="277" y="176.5">-quantity: int</text></g></g><g transform="translate(-30,-54) scale(1,1)"><g><path fill="none" stroke="none"/><text fill="#000000" stroke="none" font-family="Roboto" font-size="18px" font-style="normal" font-weight="normal" text-decoration="none" x="277" y="196.5">-price: float</text></g></g><g transform="translate(-30,-54) scale(1,1)"><rect fill="#C0C0C0" stroke="none" x="767" y="231" width="203.9326171875" height="127" opacity="0.2"/></g><g transform="translate(-30,-54) scale(1,1)"><rect fill="#ffffff" stroke="none" x="760" y="224" width="203.9326171875" height="127"/></g><g transform="translate(-30,-54) scale(1,1)"><path fill="none" stroke="#000000" d="M 760 224 L 963.9326171875 224 L 963.9326171875 351 L 760 351 L 760 224 Z Z" stroke-miterlimit="10"/></g><g transform="translate(-30,-54) scale(1,1)"><path fill="none" stroke="#000000" d="M 760 254 L 963.9326171875 254" stroke-miterlimit="10"/></g><g transform="translate(-30,-54) scale(1,1)"><path fill="none" stroke="#000000" d="M 760 342 L 963.9326171875 342" stroke-miterlimit="10"/></g><g transform="translate(-30,-54) scale(1,1)"><g><path fill="none" stroke="none"/><text fill="#000000" stroke="none" font-family="Roboto" font-size="18px" font-style="normal" font-weight="bold" text-decoration="none" x="843.30712890625" y="248.5">Debt</text></g></g><g transform="translate(-30,-54) scale(1,1)"><g><path fill="none" stroke="none"/><text fill="#000000" stroke="none" font-family="Roboto" font-size="18px" font-style="normal" font-weight="normal" text-decoration="none" x="765" y="276.5">-id: int</text></g></g><g transform="translate(-30,-54) scale(1,1)"><g><path fill="none" stroke="none"/><text fill="#000000" stroke="none" font-family="Roboto" font-size="18px" font-style="normal" font-weight="normal" text-decoration="none" x="765" y="296.5">-created_date: DateTime</text></g></g><g transform="translate(-30,-54) scale(1,1)"><g><path fill="none" stroke="none"/><text fill="#000000" stroke="none" font-family="Roboto" font-size="18px" font-style="normal" font-weight="normal" text-decoration="none" x="765" y="316.5">-staff_id: int</text></g></g><g transform="translate(-30,-54) scale(1,1)"><g><path fill="none" stroke="none"/><text fill="#000000" stroke="none" font-family="Roboto" font-size="18px" font-style="normal" font-weight="normal" text-decoration="none" x="765" y="336.5">-customer_id: int</text></g></g><g transform="translate(-30,-54) scale(1,1)"><path fill="none" stroke="#000000" d="M 583 281 L 760 281" stroke-miterlimit="10"/></g><g transform="translate(-30,-54) scale(1,1)"><g><path fill="none" stroke="none"/><text fill="#000000" stroke="none" font-family="Roboto" font-size="18px" font-style="normal" font-weight="normal" text-decoration="none" x="587.5" y="272.5">1..*</text></g></g><g transform="translate(-30,-54) scale(1,1)"><g><path fill="none" stroke="none"/><text fill="#000000" stroke="none" font-family="Roboto" font-size="18px" font-style="normal" font-weight="normal" text-decoration="none" x="727.5" y="271.5">0..*</text></g></g><g transform="translate(-30,-54) scale(1,1)"><rect fill="#C0C0C0" stroke="none" x="615" y="71" width="139.587890625" height="147" opacity="0.2"/></g><g transform="translate(-30,-54) scale(1,1)"><rect fill="#ffffff" stroke="none" x="608" y="64" width="139.587890625" height="147"/></g><g transform="translate(-30,-54) scale(1,1)"><path fill="none" stroke="#000000" d="M 608 64 L 747.587890625 64 L 747.587890625 211 L 608 211 L 608 64 Z Z" stroke-miterlimit="10"/></g><g transform="translate(-30,-54) scale(1,1)"><path fill="none" stroke="#000000" d="M 608 94 L 747.587890625 94" stroke-miterlimit="10"/></g><g transform="translate(-30,-54) scale(1,1)"><path fill="none" stroke="#000000" d="M 608 202 L 747.587890625 202" stroke-miterlimit="10"/></g><g transform="translate(-30,-54) scale(1,1)"><g><path fill="none" stroke="none"/><text fill="#000000" stroke="none" font-family="Roboto" font-size="18px" font-style="normal" font-weight="bold" text-decoration="none" x="636.26123046875" y="88.5">DebtDetail</text></g></g><g transform="translate(-30,-54) scale(1,1)"><g><path fill="none" stroke="none"/><text fill="#000000" stroke="none" font-family="Roboto" font-size="18px" font-style="normal" font-weight="normal" text-decoration="none" x="613" y="116.5">-id: int</text></g></g><g transform="translate(-30,-54) scale(1,1)"><g><path fill="none" stroke="none"/><text fill="#000000" stroke="none" font-family="Roboto" font-size="18px" font-style="normal" font-weight="normal" text-decoration="none" x="613" y="136.5">-debt_id: int</text></g></g><g transform="translate(-30,-54) scale(1,1)"><g><path fill="none" stroke="none"/><text fill="#000000" stroke="none" font-family="Roboto" font-size="18px" font-style="normal" font-weight="normal" text-decoration="none" x="613" y="156.5">-product_id: int</text></g></g><g transform="translate(-30,-54) scale(1,1)"><g><path fill="none" stroke="none"/><text fill="#000000" stroke="none" font-family="Roboto" font-size="18px" font-style="normal" font-weight="normal" text-decoration="none" x="613" y="176.5">-quantity: int</text></g></g><g transform="translate(-30,-54) scale(1,1)"><g><path fill="none" stroke="none"/><text fill="#000000" stroke="none" font-family="Roboto" font-size="18px" font-style="normal" font-weight="normal" text-decoration="none" x="613" y="196.5">-price: float</text></g></g><g transform="translate(-30,-54) scale(1,1)"><rect fill="#C0C0C0" stroke="none" x="287" y="439" width="114.8642578125" height="87" opacity="0.2"/></g><g transform="translate(-30,-54) scale(1,1)"><rect fill="#ffffff" stroke="none" x="280" y="432" width="114.8642578125" height="87"/></g><g transform="translate(-30,-54) scale(1,1)"><path fill="none" stroke="#000000" d="M 280 432 L 394.8642578125 432 L 394.8642578125 519 L 280 519 L 280 432 Z Z" stroke-miterlimit="10"/></g><g transform="translate(-30,-54) scale(1,1)"><path fill="none" stroke="#000000" d="M 280 462 L 394.8642578125 462" stroke-miterlimit="10"/></g><g transform="translate(-30,-54) scale(1,1)"><path fill="none" stroke="#000000" d="M 280 510 L 394.8642578125 510" stroke-miterlimit="10"/></g><g transform="translate(-30,-54) scale(1,1)"><g><path fill="none" stroke="none"/><text fill="#000000" stroke="none" font-family="Roboto" font-size="18px" font-style="normal" font-weight="bold" text-decoration="none" x="310.57275390625" y="456.5">Author</text></g></g><g transform="translate(-30,-54) scale(1,1)"><g><path fill="none" stroke="none"/><text fill="#000000" stroke="none" font-family="Roboto" font-size="18px" font-style="normal" font-weight="normal" text-decoration="none" x="285" y="484.5">-id: int</text></g></g><g transform="translate(-30,-54) scale(1,1)"><g><path fill="none" stroke="none"/><text fill="#000000" stroke="none" font-family="Roboto" font-size="18px" font-style="normal" font-weight="normal" text-decoration="none" x="285" y="504.5">-name: String</text></g></g><g transform="translate(-30,-54) scale(1,1)"><rect fill="#C0C0C0" stroke="none" x="623" y="439" width="114.8642578125" height="87" opacity="0.2"/></g><g transform="translate(-30,-54) scale(1,1)"><rect fill="#ffffff" stroke="none" x="616" y="432" width="114.8642578125" height="87"/></g><g transform="translate(-30,-54) scale(1,1)"><path fill="none" stroke="#000000" d="M 616 432 L 730.8642578125 432 L 730.8642578125 519 L 616 519 L 616 432 Z Z" stroke-miterlimit="10"/></g><g transform="translate(-30,-54) scale(1,1)"><path fill="none" stroke="#000000" d="M 616 462 L 730.8642578125 462" stroke-miterlimit="10"/></g><g transform="translate(-30,-54) scale(1,1)"><path fill="none" stroke="#000000" d="M 616 510 L 730.8642578125 510" stroke-miterlimit="10"/></g><g transform="translate(-30,-54) scale(1,1)"><g><path fill="none" stroke="none"/><text fill="#000000" stroke="none" font-family="Roboto" font-size="18px" font-style="normal" font-weight="bold" text-decoration="none" x="637.40576171875" y="456.5">Category</text></g></g><g transform="translate(-30,-54) scale(1,1)"><g><path fill="none" stroke="none"/><text fill="#000000" stroke="none" font-family="Roboto" font-size="18px" font-style="normal" font-weight="normal" text-decoration="none" x="621" y="484.5">-id: int</text></g></g><g transform="translate(-30,-54) scale(1,1)"><g><path fill="none" stroke="none"/><text fill="#000000" stroke="none" font-family="Roboto" font-size="18px" font-style="normal" font-weight="normal" text-decoration="none" x="621" y="504.5">-name: String</text></g></g><g transform="translate(-30,-54) scale(1,1)"><path fill="none" stroke="#000000" d="M 352 432 L 352 344 L 424 344" stroke-miterlimit="10"/></g><g transform="translate(-30,-54) scale(1,1)"><g><path fill="none" stroke="none"/><text fill="#000000" stroke="none" font-family="Roboto" font-size="18px" font-style="normal" font-weight="normal" text-decoration="none" x="319.5" y="420.5">1..*</text></g></g><g transform="translate(-30,-54) scale(1,1)"><g><path fill="none" stroke="none"/><text fill="#000000" stroke="none" font-family="Roboto" font-size="18px" font-style="normal" font-weight="normal" text-decoration="none" x="387.5" y="335.5">1..*</text></g></g><g transform="translate(-30,-54) scale(1,1)"><rect fill="#C0C0C0" stroke="none" x="799" y="471" width="149.6953125" height="187" opacity="0.2"/></g><g transform="translate(-30,-54) scale(1,1)"><rect fill="#ffffff" stroke="none" x="792" y="464" width="149.6953125" height="187"/></g><g transform="translate(-30,-54) scale(1,1)"><path fill="none" stroke="#000000" d="M 792 464 L 941.6953125 464 L 941.6953125 651 L 792 651 L 792 464 Z Z" stroke-miterlimit="10"/></g><g transform="translate(-30,-54) scale(1,1)"><path fill="none" stroke="#000000" d="M 792 494 L 941.6953125 494" stroke-miterlimit="10"/></g><g transform="translate(-30,-54) scale(1,1)"><path fill="none" stroke="#000000" d="M 792 642 L 941.6953125 642" stroke-miterlimit="10"/></g><g transform="translate(-30,-54) scale(1,1)"><g><path fill="none" stroke="none"/><text fill="#000000" stroke="none" font-family="Roboto" font-size="18px" font-style="normal" font-weight="bold" text-decoration="none" x="847.423828125" y="488.5">Staff</text></g></g><g transform="translate(-30,-54) scale(1,1)"><g><path fill="none" stroke="none"/><text fill="#000000" stroke="none" font-family="Roboto" font-size="18px" font-style="normal" font-weight="normal" text-decoration="none" x="797" y="516.5">-id: int</text></g></g><g transform="translate(-30,-54) scale(1,1)"><g><path fill="none" stroke="none"/><text fill="#000000" stroke="none" font-family="Roboto" font-size="18px" font-style="normal" font-weight="normal" text-decoration="none" x="797" y="536.5">-username: String</text></g></g><g transform="translate(-30,-54) scale(1,1)"><g><path fill="none" stroke="none"/><text fill="#000000" stroke="none" font-family="Roboto" font-size="18px" font-style="normal" font-weight="normal" text-decoration="none" x="797" y="556.5">-password: String</text></g></g><g transform="translate(-30,-54) scale(1,1)"><g><path fill="none" stroke="none"/><text fill="#000000" stroke="none" font-family="Roboto" font-size="18px" font-style="normal" font-weight="normal" text-decoration="none" x="797" y="576.5">-name: String</text></g></g><g transform="translate(-30,-54) scale(1,1)"><g><path fill="none" stroke="none"/><text fill="#000000" stroke="none" font-family="Roboto" font-size="18px" font-style="normal" font-weight="normal" text-decoration="none" x="797" y="596.5">-avatar: String</text></g></g><g transform="translate(-30,-54) scale(1,1)"><g><path fill="none" stroke="none"/><text fill="#000000" stroke="none" font-family="Roboto" font-size="18px" font-style="normal" font-weight="normal" text-decoration="none" x="797" y="616.5">-active: boolean</text></g></g><g transform="translate(-30,-54) scale(1,1)"><g><path fill="none" stroke="none"/><text fill="#000000" stroke="none" font-family="Roboto" font-size="18px" font-style="normal" font-weight="normal" text-decoration="none" x="797" y="636.5">-user_role: Enum</text></g></g><g transform="translate(-30,-54) scale(1,1)"><rect fill="#C0C0C0" stroke="none" x="775" y="767" width="196.611328125" height="107" opacity="0.2"/></g><g transform="translate(-30,-54) scale(1,1)"><rect fill="#ffffff" stroke="none" x="768" y="760" width="196.611328125" height="107"/></g><g transform="translate(-30,-54) scale(1,1)"><path fill="none" stroke="#000000" d="M 768 760 L 964.611328125 760 L 964.611328125 867 L 768 867 L 768 760 Z Z" stroke-miterlimit="10"/></g><g transform="translate(-30,-54) scale(1,1)"><path fill="none" stroke="#000000" d="M 768 790 L 964.611328125 790" stroke-miterlimit="10"/></g><g transform="translate(-30,-54) scale(1,1)"><path fill="none" stroke="#000000" d="M 768 858 L 964.611328125 858" stroke-miterlimit="10"/></g><g transform="translate(-30,-54) scale(1,1)"><g><path fill="none" stroke="none"/><text fill="#000000" stroke="none" font-family="Roboto" font-size="18px" font-style="normal" font-weight="bold" text-decoration="none" x="809.62060546875" y="784.5">ImportReceipt</text></g></g><g transform="translate(-30,-54) scale(1,1)"><g><path fill="none" stroke="none"/><text fill="#000000" stroke="none" font-family="Roboto" font-size="18px" font-style="normal" font-weight="normal" text-decoration="none" x="773" y="812.5">-id: int</text></g></g><g transform="translate(-30,-54) scale(1,1)"><g><path fill="none" stroke="none"/><text fill="#000000" stroke="none" font-family="Roboto" font-size="18px" font-style="normal" font-weight="normal" text-decoration="none" x="773" y="832.5">-date_import: DateTime</text></g></g><g transform="translate(-30,-54) scale(1,1)"><g><path fill="none" stroke="none"/><text fill="#000000" stroke="none" font-family="Roboto" font-size="18px" font-style="normal" font-weight="normal" text-decoration="none" x="773" y="852.5">-staff_id: int</text></g></g><g transform="translate(-30,-54) scale(1,1)"><path fill="none" stroke="#000000" d="M 864 651 L 864 760" stroke-miterlimit="10"/></g><g transform="translate(-30,-54) scale(1,1)"><g><path fill="none" stroke="none"/><text fill="#000000" stroke="none" font-family="Roboto" font-size="18px" font-style="normal" font-weight="normal" text-decoration="none" x="881.11328125" y="678.5">1</text></g></g><g transform="translate(-30,-54) scale(1,1)"><g><path fill="none" stroke="none"/><text fill="#000000" stroke="none" font-family="Roboto" font-size="18px" font-style="normal" font-weight="normal" text-decoration="none" x="872.5" y="745.5">0..*</text></g></g><g transform="translate(-30,-54) scale(1,1)"><rect fill="#C0C0C0" stroke="none" x="423" y="735" width="181.40625" height="147" opacity="0.2"/></g><g transform="translate(-30,-54) scale(1,1)"><rect fill="#ffffff" stroke="none" x="416" y="728" width="181.40625" height="147"/></g><g transform="translate(-30,-54) scale(1,1)"><path fill="none" stroke="#000000" d="M 416 728 L 597.40625 728 L 597.40625 875 L 416 875 L 416 728 Z Z" stroke-miterlimit="10"/></g><g transform="translate(-30,-54) scale(1,1)"><path fill="none" stroke="#000000" d="M 416 758 L 597.40625 758" stroke-miterlimit="10"/></g><g transform="translate(-30,-54) scale(1,1)"><path fill="none" stroke="#000000" d="M 416 866 L 597.40625 866" stroke-miterlimit="10"/></g><g transform="translate(-30,-54) scale(1,1)"><g><path fill="none" stroke="none"/><text fill="#000000" stroke="none" font-family="Roboto" font-size="18px" font-style="normal" font-weight="bold" text-decoration="none" x="427.14453125" y="752.5">ImportReceiptDetail</text></g></g><g transform="translate(-30,-54) scale(1,1)"><g><path fill="none" stroke="none"/><text fill="#000000" stroke="none" font-family="Roboto" font-size="18px" font-style="normal" font-weight="normal" text-decoration="none" x="421" y="780.5">-id: int</text></g></g><g transform="translate(-30,-54) scale(1,1)"><g><path fill="none" stroke="none"/><text fill="#000000" stroke="none" font-family="Roboto" font-size="18px" font-style="normal" font-weight="normal" text-decoration="none" x="421" y="800.5">-import_receipt_id: int</text></g></g><g transform="translate(-30,-54) scale(1,1)"><g><path fill="none" stroke="none"/><text fill="#000000" stroke="none" font-family="Roboto" font-size="18px" font-style="normal" font-weight="normal" text-decoration="none" x="421" y="820.5">-quantity: int</text></g></g><g transform="translate(-30,-54) scale(1,1)"><g><path fill="none" stroke="none"/><text fill="#000000" stroke="none" font-family="Roboto" font-size="18px" font-style="normal" font-weight="normal" text-decoration="none" x="421" y="840.5">-name: String</text></g></g><g transform="translate(-30,-54) scale(1,1)"><g><path fill="none" stroke="none"/><text fill="#000000" stroke="none" font-family="Roboto" font-size="18px" font-style="normal" font-weight="normal" text-decoration="none" x="421" y="860.5">-price: float</text></g></g><g transform="translate(-30,-54) scale(1,1)"><path fill="none" stroke="#000000" d="M 667 212 L 667 281 L 670 281" stroke-miterlimit="10" stroke-dasharray="3"/></g><g transform="translate(-30,-54) scale(1,1)"><path fill="none" stroke="#000000" d="M 338 212 L 338 280 L 337 280" stroke-miterlimit="10" stroke-dasharray="3"/></g><g transform="translate(-30,-54) scale(1,1)"><path fill="none" stroke="#000000" d="M 664 432 L 664 344 L 583 344" stroke-miterlimit="10"/></g><g transform="translate(-30,-54) scale(1,1)"><g><path fill="none" stroke="none"/><text fill="#000000" stroke="none" font-family="Roboto" font-size="18px" font-style="normal" font-weight="normal" text-decoration="none" x="671.5" y="424.5">1..*</text></g></g><g transform="translate(-30,-54) scale(1,1)"><g><path fill="none" stroke="none"/><text fill="#000000" stroke="none" font-family="Roboto" font-size="18px" font-style="normal" font-weight="normal" text-decoration="none" x="595.5" y="336.5">1..*</text></g></g><g transform="translate(-30,-54) scale(1,1)"><path fill="none" stroke="#000000" d="M 864 351 L 864 464" stroke-miterlimit="10"/></g><g transform="translate(-30,-54) scale(1,1)"><path fill="#FFFFFF" stroke="none" d="M 859.790482243984 453.83732514237585 L 864 464 L 868.209517756016 453.83732514237585 L 864 442"/></g><g transform="translate(-30,-54) scale(1,1)"><path fill="none" stroke="#000000" d="M 859.790482243984 453.83732514237585 L 864 464 L 868.209517756016 453.83732514237585 L 864 442 L 859.790482243984 453.83732514237585" stroke-miterlimit="10"/></g><g transform="translate(-30,-54) scale(1,1)"><g><path fill="none" stroke="none"/><text fill="#000000" stroke="none" font-family="Roboto" font-size="18px" font-style="normal" font-weight="normal" text-decoration="none" x="831.5" y="379.5">1..*</text></g></g><g transform="translate(-30,-54) scale(1,1)"><g><path fill="none" stroke="none"/><text fill="#000000" stroke="none" font-family="Roboto" font-size="18px" font-style="normal" font-weight="normal" text-decoration="none" x="845.5" y="450.5">1</text></g></g><g transform="translate(-30,-54) scale(1,1)"><path fill="none" stroke="#000000" d="M 597 810 L 768 810" stroke-miterlimit="10"/></g><g transform="translate(-30,-54) scale(1,1)"><path fill="#000000" stroke="none" d="M 757.8373251423759 814.209517756016 L 768 810 L 757.8373251423758 805.790482243984 L 746 810"/></g><g transform="translate(-30,-54) scale(1,1)"><path fill="none" stroke="#000000" d="M 757.8373251423759 814.209517756016 L 768 810 L 757.8373251423758 805.790482243984 L 746 810 L 757.8373251423759 814.209517756016" stroke-miterlimit="10"/></g><g transform="translate(-30,-54) scale(1,1)"><g><path fill="none" stroke="none"/><text fill="#000000" stroke="none" font-family="Roboto" font-size="18px" font-style="normal" font-weight="normal" text-decoration="none" x="604.5" y="831.5">1..*</text></g></g><g transform="translate(-30,-54) scale(1,1)"><g><path fill="none" stroke="none"/><text fill="#000000" stroke="none" font-family="Roboto" font-size="18px" font-style="normal" font-weight="normal" text-decoration="none" x="739.5" y="832.5">1</text></g></g></g></svg>