<svg version="1.1" xmlns="http://www.w3.org/2000/svg" xmlns:xlink="http://www.w3.org/1999/xlink" width="1924" height="1588"><defs/><g><g transform="translate(10,10) scale(1,1)"><path fill="none" stroke="#000000" d="M 0 0 L 1904 0 L 1904 1568 L 0 1568 L 0 0" stroke-miterlimit="10"/></g><g transform="translate(10,10) scale(1,1)"><path fill="#ffffff" stroke="none" d="M 0 0 L 0 26 L 318.6962890625 26 L 331.6962890625 13 L 331.6962890625 0 L 0 0"/></g><g transform="translate(10,10) scale(1,1)"><path fill="none" stroke="#000000" d="M 0 0 L 0 26 L 318.6962890625 26 L 331.6962890625 13 L 331.6962890625 0 L 0 0 L 0 0" stroke-miterlimit="10"/></g><g transform="translate(10,10) scale(1,1)"><g><path fill="none" stroke="none"/><text fill="#000000" stroke="none" font-family="Roboto" font-size="17px" font-style="normal" font-weight="normal" text-decoration="none" x="91.384765625" y="21.5">SequenceDiagram-DangNhap</text></g></g><g transform="translate(10,10) scale(1,1)"><g><path fill="none" stroke="none"/><text fill="#000000" stroke="none" font-family="Roboto" font-size="17px" font-style="normal" font-weight="bold" text-decoration="none" x="5" y="21.5">interaction</text></g></g><g transform="translate(10,10) scale(1,1)"><path fill="#ffffff" stroke="none" d="M 296.0005965909091 47.3 C 296.0005965909091 43.82060576 298.8789983130909 41 302.4296875 41 C 305.9803766869091 41 308.858778409091 43.82060576 308.858778409091 47.3 C 308.858778409091 50.779394239999995 305.9803766869091 53.6 302.4296875 53.6 C 298.8789983130909 53.6 296.0005965909091 50.779394239999995 296.0005965909091 47.3 Z"/></g><g transform="translate(10,10) scale(1,1)"><path fill="none" stroke="#000000" d="M 296.0005965909091 47.3 C 296.0005965909091 43.82060576 298.8789983130909 41 302.4296875 41 C 305.9803766869091 41 308.858778409091 43.82060576 308.858778409091 47.3 C 308.858778409091 50.779394239999995 305.9803766869091 53.6 302.4296875 53.6 C 298.8789983130909 53.6 296.0005965909091 50.779394239999995 296.0005965909091 47.3 Z" stroke-miterlimit="10"/></g><g transform="translate(10,10) scale(1,1)"><path fill="none" stroke="#000000" d="M 302.4296875 53.6 L 302.4296875 66.4" stroke-miterlimit="10"/></g><g transform="translate(10,10) scale(1,1)"><path fill="none" stroke="#000000" d="M 295.62241477272727 58.4 L 309.2369602272728 58.4" stroke-miterlimit="10"/></g><g transform="translate(10,10) scale(1,1)"><path fill="none" stroke="#000000" d="M 302.4296875 66.4 L 292.97514204545456 79" stroke-miterlimit="10"/></g><g transform="translate(10,10) scale(1,1)"><path fill="none" stroke="#000000" d="M 302.4296875 66.4 L 311.8842329545455 79" stroke-miterlimit="10"/></g><g transform="translate(10,10) scale(1,1)"><g><path fill="none" stroke="none"/><text fill="#000000" stroke="none" font-family="Roboto" font-size="17px" font-style="normal" font-weight="bold" text-decoration="none" x="274.501708984375" y="103.5">: Khach</text></g></g><g transform="translate(10,10) scale(1,1)"><path fill="none" stroke="#000000" d="M 303.5 109 L 303.5 1528" stroke-miterlimit="10" stroke-dasharray="3"/></g><g transform="translate(10,10) scale(1,1)"><rect fill="#C0C0C0" stroke="none" x="655" y="47" width="121.0166015625" height="39" opacity="0.2"/></g><g transform="translate(10,10) scale(1,1)"><rect fill="#ffffff" stroke="none" x="648" y="40" width="121.0166015625" height="39"/></g><g transform="translate(10,10) scale(1,1)"><path fill="none" stroke="#000000" d="M 648 40 L 769.0166015625 40 L 769.0166015625 79 L 648 79 L 648 40 Z Z" stroke-miterlimit="10"/></g><g transform="translate(10,10) scale(1,1)"><g><path fill="none" stroke="none"/><text fill="#000000" stroke="none" font-family="Roboto" font-size="17px" font-style="normal" font-weight="bold" text-decoration="none" x="667.929931640625" y="63.5">TrinhDuyet</text></g></g><g transform="translate(10,10) scale(1,1)"><path fill="none" stroke="#000000" d="M 709.5 80 L 709.5 1528" stroke-miterlimit="10" stroke-dasharray="3"/></g><g transform="translate(10,10) scale(1,1)"><rect fill="#C0C0C0" stroke="none" x="919" y="47" width="236.234375" height="39" opacity="0.2"/></g><g transform="translate(10,10) scale(1,1)"><rect fill="#ffffff" stroke="none" x="912" y="40" width="236.234375" height="39"/></g><g transform="translate(10,10) scale(1,1)"><path fill="none" stroke="#000000" d="M 912 40 L 1148.234375 40 L 1148.234375 79 L 912 79 L 912 40 Z Z" stroke-miterlimit="10"/></g><g transform="translate(10,10) scale(1,1)"><g><path fill="none" stroke="none"/><text fill="#000000" stroke="none" font-family="Roboto" font-size="17px" font-style="normal" font-weight="bold" text-decoration="none" x="949.172119140625" y="63.5">: DangNhapController</text></g></g><g transform="translate(10,10) scale(1,1)"><path fill="none" stroke="#000000" d="M 1031.5 80 L 1031.5 1528" stroke-miterlimit="10" stroke-dasharray="3"/></g><g transform="translate(10,10) scale(1,1)"><rect fill="#C0C0C0" stroke="none" x="1335" y="47" width="141.0078125" height="39" opacity="0.2"/></g><g transform="translate(10,10) scale(1,1)"><rect fill="#ffffff" stroke="none" x="1328" y="40" width="141.0078125" height="39"/></g><g transform="translate(10,10) scale(1,1)"><path fill="none" stroke="#000000" d="M 1328 40 L 1469.0078125 40 L 1469.0078125 79 L 1328 79 L 1328 40 Z Z" stroke-miterlimit="10"/></g><g transform="translate(10,10) scale(1,1)"><g><path fill="none" stroke="none"/><text fill="#000000" stroke="none" font-family="Roboto" font-size="17px" font-style="normal" font-weight="bold" text-decoration="none" x="1367.595947265625" y="63.5">: DichVu</text></g></g><g transform="translate(10,10) scale(1,1)"><path fill="none" stroke="#000000" d="M 1399.5 80 L 1399.5 1528" stroke-miterlimit="10" stroke-dasharray="3"/></g><g transform="translate(10,10) scale(1,1)"><rect fill="#C0C0C0" stroke="none" x="1679" y="47" width="129.322265625" height="39" opacity="0.2"/></g><g transform="translate(10,10) scale(1,1)"><rect fill="#ffffff" stroke="none" x="1672" y="40" width="129.322265625" height="39"/></g><g transform="translate(10,10) scale(1,1)"><path fill="none" stroke="#000000" d="M 1672 40 L 1801.322265625 40 L 1801.322265625 79 L 1672 79 L 1672 40 Z Z" stroke-miterlimit="10"/></g><g transform="translate(10,10) scale(1,1)"><g><path fill="none" stroke="none"/><text fill="#000000" stroke="none" font-family="Roboto" font-size="17px" font-style="normal" font-weight="bold" text-decoration="none" x="1690.305419921875" y="63.5">CoSoDuLieu</text></g></g><g transform="translate(10,10) scale(1,1)"><path fill="none" stroke="#000000" d="M 1737.5 80 L 1737.5 1528" stroke-miterlimit="10" stroke-dasharray="3"/></g><g transform="translate(10,10) scale(1,1)"><path fill="none" stroke="#000000" d="M 303 177 L 702 177" stroke-miterlimit="10"/></g><g transform="translate(10,10) scale(1,1)"><path fill="#000000" stroke="none" d="M 691.8373251423759 181.209517756016 L 702 177 L 691.8373251423758 172.790482243984"/></g><g transform="translate(10,10) scale(1,1)"><path fill="none" stroke="#000000" d="M 691.8373251423759 181.209517756016 L 702 177 L 691.8373251423758 172.790482243984 L 691.8373251423759 181.209517756016" stroke-miterlimit="10"/></g><g transform="translate(10,10) scale(1,1)"><g><path fill="none" stroke="none"/><text fill="#000000" stroke="none" font-family="Roboto" font-size="17px" font-style="normal" font-weight="normal" text-decoration="none" x="390.92626953125" y="167.5">1 : Chọn tính năng đăng nhập</text></g></g><g transform="translate(10,10) scale(1,1)"><rect fill="#ffffff" stroke="none" x="702" y="177" width="13" height="71"/></g><g transform="translate(10,10) scale(1,1)"><path fill="none" stroke="#000000" d="M 702 177 L 715 177 L 715 248 L 702 248 L 702 177 Z Z" stroke-miterlimit="10"/></g><g transform="translate(10,10) scale(1,1)"><path fill="none" stroke="#000000" d="M 702 216 L 303 216" stroke-miterlimit="10" stroke-dasharray="3"/></g><g transform="translate(10,10) scale(1,1)"><path fill="none" stroke="#000000" d="M 313.16267485762415 211.790482243984 L 303 216 L 313.16267485762415 220.209517756016" stroke-miterlimit="10"/></g><g transform="translate(10,10) scale(1,1)"><g><path fill="none" stroke="none"/><text fill="#000000" stroke="none" font-family="Roboto" font-size="17px" font-style="normal" font-weight="normal" text-decoration="none" x="376.280517578125" y="240.5">2 : Hiển thị biểu mẫu đăng nhập</text></g></g><g transform="translate(10,10) scale(1,1)"><path fill="none" stroke="#000000" d="M 303 304 L 702 304" stroke-miterlimit="10"/></g><g transform="translate(10,10) scale(1,1)"><path fill="#000000" stroke="none" d="M 691.8373251423759 308.209517756016 L 702 304 L 691.8373251423758 299.790482243984"/></g><g transform="translate(10,10) scale(1,1)"><path fill="none" stroke="#000000" d="M 691.8373251423759 308.209517756016 L 702 304 L 691.8373251423758 299.790482243984 L 691.8373251423759 308.209517756016" stroke-miterlimit="10"/></g><g transform="translate(10,10) scale(1,1)"><g><path fill="none" stroke="none"/><text fill="#000000" stroke="none" font-family="Roboto" font-size="17px" font-style="normal" font-weight="normal" text-decoration="none" x="383.373779296875" y="296.5">3 : Nhập(tenTaiKhoan, matKhau)</text></g></g><g transform="translate(10,10) scale(1,1)"><rect fill="#ffffff" stroke="none" x="702" y="304" width="13" height="91"/></g><g transform="translate(10,10) scale(1,1)"><path fill="none" stroke="#000000" d="M 702 304 L 715 304 L 715 395 L 702 395 L 702 304 Z Z" stroke-miterlimit="10"/></g><g transform="translate(10,10) scale(1,1)"><path fill="none" stroke="#000000" d="M 715 320 L 745 320 L 745 340 L 722 340" stroke-miterlimit="10"/></g><g transform="translate(10,10) scale(1,1)"><path fill="#000000" stroke="none" d="M 732.1626748576241 335.790482243984 L 722 340 L 732.1626748576241 344.209517756016"/></g><g transform="translate(10,10) scale(1,1)"><path fill="none" stroke="#000000" d="M 732.1626748576241 335.790482243984 L 722 340 L 732.1626748576241 344.209517756016 L 732.1626748576241 335.790482243984" stroke-miterlimit="10"/></g><g transform="translate(10,10) scale(1,1)"><g><path fill="none" stroke="none"/><text fill="#000000" stroke="none" font-family="Roboto" font-size="17px" font-style="normal" font-weight="normal" text-decoration="none" x="761.2783203125" y="335.5">4 : Kiểm tra định dạng</text></g></g><g transform="translate(10,10) scale(1,1)"><rect fill="#ffffff" stroke="none" x="709" y="340" width="13" height="28"/></g><g transform="translate(10,10) scale(1,1)"><path fill="none" stroke="#000000" d="M 709 340 L 722 340 L 722 368 L 709 368 L 709 340 Z Z" stroke-miterlimit="10"/></g><g transform="translate(10,10) scale(1,1)"><path fill="none" stroke="#000000" d="M 303 464 L 702 464" stroke-miterlimit="10"/></g><g transform="translate(10,10) scale(1,1)"><path fill="#000000" stroke="none" d="M 691.8373251423759 468.209517756016 L 702 464 L 691.8373251423758 459.790482243984"/></g><g transform="translate(10,10) scale(1,1)"><path fill="none" stroke="#000000" d="M 691.8373251423759 468.209517756016 L 702 464 L 691.8373251423758 459.790482243984 L 691.8373251423759 468.209517756016" stroke-miterlimit="10"/></g><g transform="translate(10,10) scale(1,1)"><g><path fill="none" stroke="none"/><text fill="#000000" stroke="none" font-family="Roboto" font-size="17px" font-style="normal" font-weight="normal" text-decoration="none" x="406.90478515625" y="455.5">5 : Nhấn nút [Đăng nhập]</text></g></g><g transform="translate(10,10) scale(1,1)"><rect fill="#ffffff" stroke="none" x="702" y="464" width="13" height="960"/></g><g transform="translate(10,10) scale(1,1)"><path fill="none" stroke="#000000" d="M 702 464 L 715 464 L 715 1424 L 702 1424 L 702 464 Z Z" stroke-miterlimit="10"/></g><g transform="translate(10,10) scale(1,1)"><path fill="none" stroke="#000000" d="M 715 480 L 1024 480" stroke-miterlimit="10"/></g><g transform="translate(10,10) scale(1,1)"><path fill="#000000" stroke="none" d="M 1013.8373251423759 484.209517756016 L 1024 480 L 1013.8373251423758 475.790482243984"/></g><g transform="translate(10,10) scale(1,1)"><path fill="none" stroke="#000000" d="M 1013.8373251423759 484.209517756016 L 1024 480 L 1013.8373251423758 475.790482243984 L 1013.8373251423759 484.209517756016" stroke-miterlimit="10"/></g><g transform="translate(10,10) scale(1,1)"><g><path fill="none" stroke="none"/><text fill="#000000" stroke="none" font-family="Roboto" font-size="17px" font-style="normal" font-weight="normal" text-decoration="none" x="770.36962890625" y="471.5">6 : Gửi yêu cầu đăng nhập</text></g></g><g transform="translate(10,10) scale(1,1)"><rect fill="#ffffff" stroke="none" x="1024" y="480" width="13" height="920"/></g><g transform="translate(10,10) scale(1,1)"><path fill="none" stroke="#000000" d="M 1024 480 L 1037 480 L 1037 1400 L 1024 1400 L 1024 480 Z Z" stroke-miterlimit="10"/></g><g transform="translate(10,10) scale(1,1)"><path fill="none" stroke="#000000" d="M 1037 496 L 1392 496" stroke-miterlimit="10"/></g><g transform="translate(10,10) scale(1,1)"><path fill="#000000" stroke="none" d="M 1381.837325142376 500.209517756016 L 1392 496 L 1381.837325142376 491.790482243984"/></g><g transform="translate(10,10) scale(1,1)"><path fill="none" stroke="#000000" d="M 1381.837325142376 500.209517756016 L 1392 496 L 1381.837325142376 491.790482243984 L 1381.837325142376 500.209517756016" stroke-miterlimit="10"/></g><g transform="translate(10,10) scale(1,1)"><g><path fill="none" stroke="none"/><text fill="#000000" stroke="none" font-family="Roboto" font-size="17px" font-style="normal" font-weight="normal" text-decoration="none" x="1057.644287109375" y="487.5">7 : Gọi phương thức XacThucDangNhap()</text></g></g><g transform="translate(10,10) scale(1,1)"><rect fill="#ffffff" stroke="none" x="1392" y="496" width="13" height="264"/></g><g transform="translate(10,10) scale(1,1)"><path fill="none" stroke="#000000" d="M 1392 496 L 1405 496 L 1405 760 L 1392 760 L 1392 496 Z Z" stroke-miterlimit="10"/></g><g transform="translate(10,10) scale(1,1)"><path fill="none" stroke="#000000" d="M 1405 512 L 1730 512" stroke-miterlimit="10"/></g><g transform="translate(10,10) scale(1,1)"><path fill="#000000" stroke="none" d="M 1719.837325142376 516.209517756016 L 1730 512 L 1719.837325142376 507.790482243984"/></g><g transform="translate(10,10) scale(1,1)"><path fill="none" stroke="#000000" d="M 1719.837325142376 516.209517756016 L 1730 512 L 1719.837325142376 507.790482243984 L 1719.837325142376 516.209517756016" stroke-miterlimit="10"/></g><g transform="translate(10,10) scale(1,1)"><g><path fill="none" stroke="none"/><text fill="#000000" stroke="none" font-family="Roboto" font-size="17px" font-style="normal" font-weight="normal" text-decoration="none" x="1414.362548828125" y="503.5">8 : Tra cứu thông tin xác thực đăng nhập</text></g></g><g transform="translate(10,10) scale(1,1)"><rect fill="#ffffff" stroke="none" x="1730" y="512" width="13" height="232"/></g><g transform="translate(10,10) scale(1,1)"><path fill="none" stroke="#000000" d="M 1730 512 L 1743 512 L 1743 744 L 1730 744 L 1730 512 Z Z" stroke-miterlimit="10"/></g><g transform="translate(10,10) scale(1,1)"><path fill="none" stroke="#000000" d="M 1730 568 L 1405 568" stroke-miterlimit="10" stroke-dasharray="3"/></g><g transform="translate(10,10) scale(1,1)"><path fill="none" stroke="#000000" d="M 1415.162674857624 563.790482243984 L 1405 568 L 1415.162674857624 572.209517756016" stroke-miterlimit="10"/></g><g transform="translate(10,10) scale(1,1)"><g><path fill="none" stroke="none"/><text fill="#000000" stroke="none" font-family="Roboto" font-size="17px" font-style="normal" font-weight="normal" text-decoration="none" x="1451.510009765625" y="596.5">9 : Không tìm thấy người dùng</text></g></g><g transform="translate(10,10) scale(1,1)"><path fill="none" stroke="#000000" d="M 1392 584 L 1037 584" stroke-miterlimit="10" stroke-dasharray="3"/></g><g transform="translate(10,10) scale(1,1)"><path fill="none" stroke="#000000" d="M 1047.162674857624 579.790482243984 L 1037 584 L 1047.162674857624 588.209517756016" stroke-miterlimit="10"/></g><g transform="translate(10,10) scale(1,1)"><g><path fill="none" stroke="none"/><text fill="#000000" stroke="none" font-family="Roboto" font-size="17px" font-style="normal" font-weight="normal" text-decoration="none" x="1131.262451171875" y="608.5">10 : Xác thực thất bại</text></g></g><g transform="translate(10,10) scale(1,1)"><path fill="none" stroke="#000000" d="M 1024 608 L 715 608" stroke-miterlimit="10" stroke-dasharray="3"/></g><g transform="translate(10,10) scale(1,1)"><path fill="none" stroke="#000000" d="M 725.1626748576241 603.790482243984 L 715 608 L 725.1626748576241 612.209517756016" stroke-miterlimit="10"/></g><g transform="translate(10,10) scale(1,1)"><g><path fill="none" stroke="none"/><text fill="#000000" stroke="none" font-family="Roboto" font-size="17px" font-style="normal" font-weight="normal" text-decoration="none" x="774.56982421875" y="631.5">11 : Ở lại trang đăng nhập</text></g></g><g transform="translate(10,10) scale(1,1)"><path fill="none" stroke="#000000" d="M 702 624 L 303 624" stroke-miterlimit="10" stroke-dasharray="3"/></g><g transform="translate(10,10) scale(1,1)"><path fill="none" stroke="#000000" d="M 313.16267485762415 619.790482243984 L 303 624 L 313.16267485762415 628.209517756016" stroke-miterlimit="10"/></g><g transform="translate(10,10) scale(1,1)"><g><path fill="none" stroke="none"/><text fill="#000000" stroke="none" font-family="Roboto" font-size="17px" font-style="normal" font-weight="normal" text-decoration="none" x="355.5390625" y="648.5">12 : Hiện thông báo đăng nhập thất bại</text></g></g><g transform="translate(10,10) scale(1,1)"><path fill="none" stroke="#000000" d="M 1730 712 L 1405 712" stroke-miterlimit="10" stroke-dasharray="3"/></g><g transform="translate(10,10) scale(1,1)"><path fill="none" stroke="#000000" d="M 1415.162674857624 707.790482243984 L 1405 712 L 1415.162674857624 716.209517756016" stroke-miterlimit="10"/></g><g transform="translate(10,10) scale(1,1)"><g><path fill="none" stroke="none"/><text fill="#000000" stroke="none" font-family="Roboto" font-size="17px" font-style="normal" font-weight="normal" text-decoration="none" x="1470.355224609375" y="736.5">13 : Tìm thấy người dùng</text></g></g><g transform="translate(10,10) scale(1,1)"><path fill="none" stroke="#000000" d="M 1392 728 L 1037 728" stroke-miterlimit="10" stroke-dasharray="3"/></g><g transform="translate(10,10) scale(1,1)"><path fill="none" stroke="#000000" d="M 1047.162674857624 723.790482243984 L 1037 728 L 1047.162674857624 732.209517756016" stroke-miterlimit="10"/></g><g transform="translate(10,10) scale(1,1)"><g><path fill="none" stroke="none"/><text fill="#000000" stroke="none" font-family="Roboto" font-size="17px" font-style="normal" font-weight="normal" text-decoration="none" x="1116.7470703125" y="755.5">14 : Xác thực thành công</text></g></g><g transform="translate(10,10) scale(1,1)"><path fill="none" stroke="#000000" d="M 1037 816 L 1392 816" stroke-miterlimit="10"/></g><g transform="translate(10,10) scale(1,1)"><path fill="#000000" stroke="none" d="M 1381.837325142376 820.209517756016 L 1392 816 L 1381.837325142376 811.790482243984"/></g><g transform="translate(10,10) scale(1,1)"><path fill="none" stroke="#000000" d="M 1381.837325142376 820.209517756016 L 1392 816 L 1381.837325142376 811.790482243984 L 1381.837325142376 820.209517756016" stroke-miterlimit="10"/></g><g transform="translate(10,10) scale(1,1)"><g><path fill="none" stroke="none"/><text fill="#000000" stroke="none" font-family="Roboto" font-size="17px" font-style="normal" font-weight="normal" text-decoration="none" x="1071.9033203125" y="807.5">15 : Gọi phương thức PhanQuyenDN()</text></g></g><g transform="translate(10,10) scale(1,1)"><rect fill="#ffffff" stroke="none" x="1392" y="816" width="13" height="568"/></g><g transform="translate(10,10) scale(1,1)"><path fill="none" stroke="#000000" d="M 1392 816 L 1405 816 L 1405 1384 L 1392 1384 L 1392 816 Z Z" stroke-miterlimit="10"/></g><g transform="translate(10,10) scale(1,1)"><path fill="none" stroke="#000000" d="M 1405 832 L 1730 832" stroke-miterlimit="10"/></g><g transform="translate(10,10) scale(1,1)"><path fill="#000000" stroke="none" d="M 1719.837325142376 836.209517756016 L 1730 832 L 1719.837325142376 827.790482243984"/></g><g transform="translate(10,10) scale(1,1)"><path fill="none" stroke="#000000" d="M 1719.837325142376 836.209517756016 L 1730 832 L 1719.837325142376 827.790482243984 L 1719.837325142376 836.209517756016" stroke-miterlimit="10"/></g><g transform="translate(10,10) scale(1,1)"><g><path fill="none" stroke="none"/><text fill="#000000" stroke="none" font-family="Roboto" font-size="17px" font-style="normal" font-weight="normal" text-decoration="none" x="1435.303466796875" y="824.5">16 : Tra cứu phân quyền đăng nhập</text></g></g><g transform="translate(10,10) scale(1,1)"><rect fill="#ffffff" stroke="none" x="1730" y="832" width="13" height="536"/></g><g transform="translate(10,10) scale(1,1)"><path fill="none" stroke="#000000" d="M 1730 832 L 1743 832 L 1743 1368 L 1730 1368 L 1730 832 Z Z" stroke-miterlimit="10"/></g><g transform="translate(10,10) scale(1,1)"><path fill="none" stroke="#000000" d="M 1730 904 L 1405 904" stroke-miterlimit="10" stroke-dasharray="3"/></g><g transform="translate(10,10) scale(1,1)"><path fill="none" stroke="#000000" d="M 1415.162674857624 899.790482243984 L 1405 904 L 1415.162674857624 908.209517756016" stroke-miterlimit="10"/></g><g transform="translate(10,10) scale(1,1)"><g><path fill="none" stroke="none"/><text fill="#000000" stroke="none" font-family="Roboto" font-size="17px" font-style="normal" font-weight="normal" text-decoration="none" x="1454.34326171875" y="927.5">17 : Phân quyền quản trị viên</text></g></g><g transform="translate(10,10) scale(1,1)"><path fill="none" stroke="#000000" d="M 1392 928 L 1037 928" stroke-miterlimit="10" stroke-dasharray="3"/></g><g transform="translate(10,10) scale(1,1)"><path fill="none" stroke="#000000" d="M 1047.162674857624 923.790482243984 L 1037 928 L 1047.162674857624 932.209517756016" stroke-miterlimit="10"/></g><g transform="translate(10,10) scale(1,1)"><g><path fill="none" stroke="none"/><text fill="#000000" stroke="none" font-family="Roboto" font-size="17px" font-style="normal" font-weight="normal" text-decoration="none" x="1077.88818359375" y="951.5">18 : Đăng nhập tư cách quản trị viên</text></g></g><g transform="translate(10,10) scale(1,1)"><path fill="none" stroke="#000000" d="M 1024 944 L 715 944" stroke-miterlimit="10" stroke-dasharray="3"/></g><g transform="translate(10,10) scale(1,1)"><path fill="none" stroke="#000000" d="M 725.1626748576241 939.790482243984 L 715 944 L 725.1626748576241 948.209517756016" stroke-miterlimit="10"/></g><g transform="translate(10,10) scale(1,1)"><g><path fill="none" stroke="none"/><text fill="#000000" stroke="none" font-family="Roboto" font-size="17px" font-style="normal" font-weight="normal" text-decoration="none" x="761.056884765625" y="972.5">19 : Chuyển về trang quản trị</text></g></g><g transform="translate(10,10) scale(1,1)"><path fill="none" stroke="#000000" d="M 702 960 L 303 960" stroke-miterlimit="10" stroke-dasharray="3"/></g><g transform="translate(10,10) scale(1,1)"><path fill="none" stroke="#000000" d="M 313.16267485762415 955.790482243984 L 303 960 L 313.16267485762415 964.209517756016" stroke-miterlimit="10"/></g><g transform="translate(10,10) scale(1,1)"><g><path fill="none" stroke="none"/><text fill="#000000" stroke="none" font-family="Roboto" font-size="17px" font-style="normal" font-weight="normal" text-decoration="none" x="398.61962890625" y="982.5">20 : Đăng nhập thành công</text></g></g><g transform="translate(10,10) scale(1,1)"><path fill="none" stroke="#000000" d="M 1730 1048 L 1405 1048" stroke-miterlimit="10" stroke-dasharray="3"/></g><g transform="translate(10,10) scale(1,1)"><path fill="none" stroke="#000000" d="M 1415.162674857624 1043.7904822439841 L 1405 1048 L 1415.162674857624 1052.2095177560159" stroke-miterlimit="10"/></g><g transform="translate(10,10) scale(1,1)"><g><path fill="none" stroke="none"/><text fill="#000000" stroke="none" font-family="Roboto" font-size="17px" font-style="normal" font-weight="normal" text-decoration="none" x="1460.104248046875" y="1070.5">21 : Phân quyền quản lý kho</text></g></g><g transform="translate(10,10) scale(1,1)"><path fill="none" stroke="#000000" d="M 1392 1064 L 1037 1064" stroke-miterlimit="10" stroke-dasharray="3"/></g><g transform="translate(10,10) scale(1,1)"><path fill="none" stroke="#000000" d="M 1047.162674857624 1059.7904822439841 L 1037 1064 L 1047.162674857624 1068.2095177560159" stroke-miterlimit="10"/></g><g transform="translate(10,10) scale(1,1)"><g><path fill="none" stroke="none"/><text fill="#000000" stroke="none" font-family="Roboto" font-size="17px" font-style="normal" font-weight="normal" text-decoration="none" x="1079.853271484375" y="1088.5">22 : Đăng nhập tư cách quản lý kho</text></g></g><g transform="translate(10,10) scale(1,1)"><path fill="none" stroke="#000000" d="M 1024 1088 L 715 1088" stroke-miterlimit="10" stroke-dasharray="3"/></g><g transform="translate(10,10) scale(1,1)"><path fill="none" stroke="#000000" d="M 725.1626748576241 1083.7904822439841 L 715 1088 L 725.1626748576241 1092.2095177560159" stroke-miterlimit="10"/></g><g transform="translate(10,10) scale(1,1)"><g><path fill="none" stroke="none"/><text fill="#000000" stroke="none" font-family="Roboto" font-size="17px" font-style="normal" font-weight="normal" text-decoration="none" x="760.855224609375" y="1115.5">23 : Chuyển về trang quản trị</text></g></g><g transform="translate(10,10) scale(1,1)"><path fill="none" stroke="#000000" d="M 702 1104 L 303 1104" stroke-miterlimit="10" stroke-dasharray="3"/></g><g transform="translate(10,10) scale(1,1)"><path fill="none" stroke="#000000" d="M 313.16267485762415 1099.7904822439841 L 303 1104 L 313.16267485762415 1108.2095177560159" stroke-miterlimit="10"/></g><g transform="translate(10,10) scale(1,1)"><g><path fill="none" stroke="none"/><text fill="#000000" stroke="none" font-family="Roboto" font-size="17px" font-style="normal" font-weight="normal" text-decoration="none" x="399.61962890625" y="1127.5">24 : Đăng nhập thành công</text></g></g><g transform="translate(10,10) scale(1,1)"><path fill="none" stroke="#000000" d="M 1730 1192 L 1405 1192" stroke-miterlimit="10" stroke-dasharray="3"/></g><g transform="translate(10,10) scale(1,1)"><path fill="none" stroke="#000000" d="M 1415.162674857624 1187.7904822439841 L 1405 1192 L 1415.162674857624 1196.2095177560159" stroke-miterlimit="10"/></g><g transform="translate(10,10) scale(1,1)"><g><path fill="none" stroke="none"/><text fill="#000000" stroke="none" font-family="Roboto" font-size="17px" font-style="normal" font-weight="normal" text-decoration="none" x="1461.8017578125" y="1216.5">25 : Phân quyền nhân viên</text></g></g><g transform="translate(10,10) scale(1,1)"><path fill="none" stroke="#000000" d="M 1392 1208 L 1037 1208" stroke-miterlimit="10" stroke-dasharray="3"/></g><g transform="translate(10,10) scale(1,1)"><path fill="none" stroke="#000000" d="M 1047.162674857624 1203.7904822439841 L 1037 1208 L 1047.162674857624 1212.2095177560159" stroke-miterlimit="10"/></g><g transform="translate(10,10) scale(1,1)"><g><path fill="none" stroke="none"/><text fill="#000000" stroke="none" font-family="Roboto" font-size="17px" font-style="normal" font-weight="normal" text-decoration="none" x="1086.853271484375" y="1232.5">26 : Đăng nhập tư cách nhân viên</text></g></g><g transform="translate(10,10) scale(1,1)"><path fill="none" stroke="#000000" d="M 1024 1224 L 715 1224" stroke-miterlimit="10" stroke-dasharray="3"/></g><g transform="translate(10,10) scale(1,1)"><path fill="none" stroke="#000000" d="M 725.1626748576241 1219.7904822439841 L 715 1224 L 725.1626748576241 1228.2095177560159" stroke-miterlimit="10"/></g><g transform="translate(10,10) scale(1,1)"><g><path fill="none" stroke="none"/><text fill="#000000" stroke="none" font-family="Roboto" font-size="17px" font-style="normal" font-weight="normal" text-decoration="none" x="774.487060546875" y="1247.5">27 : Chuyển về trang chủ</text></g></g><g transform="translate(10,10) scale(1,1)"><path fill="none" stroke="#000000" d="M 702 1248 L 303 1248" stroke-miterlimit="10" stroke-dasharray="3"/></g><g transform="translate(10,10) scale(1,1)"><path fill="none" stroke="#000000" d="M 313.16267485762415 1243.7904822439841 L 303 1248 L 313.16267485762415 1252.2095177560159" stroke-miterlimit="10"/></g><g transform="translate(10,10) scale(1,1)"><g><path fill="none" stroke="none"/><text fill="#000000" stroke="none" font-family="Roboto" font-size="17px" font-style="normal" font-weight="normal" text-decoration="none" x="399.61962890625" y="1269.5">28 : Đăng nhập thành công</text></g></g><g transform="translate(10,10) scale(1,1)"><path fill="none" stroke="#000000" d="M 1730 1336 L 1405 1336" stroke-miterlimit="10" stroke-dasharray="3"/></g><g transform="translate(10,10) scale(1,1)"><path fill="none" stroke="#000000" d="M 1415.162674857624 1331.7904822439841 L 1405 1336 L 1415.162674857624 1340.2095177560159" stroke-miterlimit="10"/></g><g transform="translate(10,10) scale(1,1)"><g><path fill="none" stroke="none"/><text fill="#000000" stroke="none" font-family="Roboto" font-size="17px" font-style="normal" font-weight="normal" text-decoration="none" x="1460.386474609375" y="1363.5">29 : Phân quyền người dùng</text></g></g><g transform="translate(10,10) scale(1,1)"><path fill="none" stroke="#000000" d="M 1392 1352 L 1037 1352" stroke-miterlimit="10" stroke-dasharray="3"/></g><g transform="translate(10,10) scale(1,1)"><path fill="none" stroke="#000000" d="M 1047.162674857624 1347.7904822439841 L 1037 1352 L 1047.162674857624 1356.2095177560159" stroke-miterlimit="10"/></g><g transform="translate(10,10) scale(1,1)"><g><path fill="none" stroke="none"/><text fill="#000000" stroke="none" font-family="Roboto" font-size="17px" font-style="normal" font-weight="normal" text-decoration="none" x="1079.853271484375" y="1379.5">30 : Đăng nhập tư cách người dùng</text></g></g><g transform="translate(10,10) scale(1,1)"><path fill="none" stroke="#000000" d="M 1024 1368 L 715 1368" stroke-miterlimit="10" stroke-dasharray="3"/></g><g transform="translate(10,10) scale(1,1)"><path fill="none" stroke="#000000" d="M 725.1626748576241 1363.7904822439841 L 715 1368 L 725.1626748576241 1372.2095177560159" stroke-miterlimit="10"/></g><g transform="translate(10,10) scale(1,1)"><g><path fill="none" stroke="none"/><text fill="#000000" stroke="none" font-family="Roboto" font-size="17px" font-style="normal" font-weight="normal" text-decoration="none" x="774.587890625" y="1390.5">31 : Chuyển về trang chủ</text></g></g><g transform="translate(10,10) scale(1,1)"><path fill="none" stroke="#000000" d="M 702 1384 L 303 1384" stroke-miterlimit="10" stroke-dasharray="3"/></g><g transform="translate(10,10) scale(1,1)"><path fill="none" stroke="#000000" d="M 313.16267485762415 1379.7904822439841 L 303 1384 L 313.16267485762415 1388.2095177560159" stroke-miterlimit="10"/></g><g transform="translate(10,10) scale(1,1)"><g><path fill="none" stroke="none"/><text fill="#000000" stroke="none" font-family="Roboto" font-size="17px" font-style="normal" font-weight="normal" text-decoration="none" x="399.61962890625" y="1406.5">32 : Đăng nhập thành công</text></g></g><g transform="translate(10,10) scale(1,1)"><path fill="none" stroke="#000000" d="M 56 544 L 1848 544 L 1848 1496 L 56 1496 L 56 544" stroke-miterlimit="10"/></g><g transform="translate(10,10) scale(1,1)"><path fill="#ffffff" stroke="none" d="M 56 544 L 56 570 L 247.83544921875 570 L 260.83544921875 557 L 260.83544921875 544 L 56 544"/></g><g transform="translate(10,10) scale(1,1)"><path fill="none" stroke="#000000" d="M 56 544 L 56 570 L 247.83544921875 570 L 260.83544921875 557 L 260.83544921875 544 L 56 544 L 56 544" stroke-miterlimit="10"/></g><g transform="translate(10,10) scale(1,1)"><g><path fill="none" stroke="none"/><text fill="#000000" stroke="none" font-family="Roboto" font-size="17px" font-style="normal" font-weight="normal" text-decoration="none" x="85.92578125" y="565.5">Xác thực người dùng</text></g></g><g transform="translate(10,10) scale(1,1)"><g><path fill="none" stroke="none"/><text fill="#000000" stroke="none" font-family="Roboto" font-size="17px" font-style="normal" font-weight="bold" text-decoration="none" x="61" y="565.5">alt</text></g></g><g transform="translate(10,10) scale(1,1)"><g><path fill="none" stroke="none"/><text fill="#000000" stroke="none" font-family="Roboto" font-size="17px" font-style="normal" font-weight="normal" text-decoration="none" x="75.5" y="602.5">[Không tìm thấy người dùng]</text></g></g><g transform="translate(10,10) scale(1,1)"><path fill="none" stroke="#000000" d="M 56 673 L 1848 673" stroke-miterlimit="10" stroke-dasharray="10,3"/></g><g transform="translate(10,10) scale(1,1)"><g><path fill="none" stroke="none"/><text fill="#000000" stroke="none" font-family="Roboto" font-size="17px" font-style="normal" font-weight="normal" text-decoration="none" x="75.5" y="704.5">[Tìm thấy người dùng]</text></g></g><g transform="translate(10,10) scale(1,1)"><path fill="none" stroke="#000000" d="M 112 864 L 1792 864 L 1792 1456 L 112 1456 L 112 864" stroke-miterlimit="10"/></g><g transform="translate(10,10) scale(1,1)"><path fill="#ffffff" stroke="none" d="M 112 864 L 112 890 L 235.20458984375 890 L 248.20458984375 877 L 248.20458984375 864 L 112 864"/></g><g transform="translate(10,10) scale(1,1)"><path fill="none" stroke="#000000" d="M 112 864 L 112 890 L 235.20458984375 890 L 248.20458984375 877 L 248.20458984375 864 L 112 864 L 112 864" stroke-miterlimit="10"/></g><g transform="translate(10,10) scale(1,1)"><g><path fill="none" stroke="none"/><text fill="#000000" stroke="none" font-family="Roboto" font-size="17px" font-style="normal" font-weight="normal" text-decoration="none" x="141.92578125" y="885.5">Phân quyền</text></g></g><g transform="translate(10,10) scale(1,1)"><g><path fill="none" stroke="none"/><text fill="#000000" stroke="none" font-family="Roboto" font-size="17px" font-style="normal" font-weight="bold" text-decoration="none" x="117" y="885.5">alt</text></g></g><g transform="translate(10,10) scale(1,1)"><g><path fill="none" stroke="none"/><text fill="#000000" stroke="none" font-family="Roboto" font-size="17px" font-style="normal" font-weight="normal" text-decoration="none" x="131.5" y="922.5">[Tư cách quản trị viên]</text></g></g><g transform="translate(10,10) scale(1,1)"><path fill="none" stroke="#000000" d="M 112 1017 L 1792 1017" stroke-miterlimit="10" stroke-dasharray="10,3"/></g><g transform="translate(10,10) scale(1,1)"><g><path fill="none" stroke="none"/><text fill="#000000" stroke="none" font-family="Roboto" font-size="17px" font-style="normal" font-weight="normal" text-decoration="none" x="131.5" y="1048.5">[Tư cách quản lý kho]</text></g></g><g transform="translate(10,10) scale(1,1)"><path fill="none" stroke="#000000" d="M 112 1153 L 1792 1153" stroke-miterlimit="10" stroke-dasharray="10,3"/></g><g transform="translate(10,10) scale(1,1)"><g><path fill="none" stroke="none"/><text fill="#000000" stroke="none" font-family="Roboto" font-size="17px" font-style="normal" font-weight="normal" text-decoration="none" x="131.5" y="1184.5">[Tư cách nhân viên]</text></g></g><g transform="translate(10,10) scale(1,1)"><path fill="none" stroke="#000000" d="M 112 1297 L 1792 1297" stroke-miterlimit="10" stroke-dasharray="10,3"/></g><g transform="translate(10,10) scale(1,1)"><g><path fill="none" stroke="none"/><text fill="#000000" stroke="none" font-family="Roboto" font-size="17px" font-style="normal" font-weight="normal" text-decoration="none" x="131.5" y="1328.5">[Tư cách người dùng]</text></g></g><g transform="translate(10,10) scale(1,1)"><path fill="none" stroke="#000000" d="M 56 264 L 960 264 L 960 408 L 56 408 L 56 264" stroke-miterlimit="10"/></g><g transform="translate(10,10) scale(1,1)"><path fill="#ffffff" stroke="none" d="M 56 264 L 56 290 L 247.046875 290 L 260.046875 277 L 260.046875 264 L 56 264"/></g><g transform="translate(10,10) scale(1,1)"><path fill="none" stroke="#000000" d="M 56 264 L 56 290 L 247.046875 290 L 260.046875 277 L 260.046875 264 L 56 264 L 56 264" stroke-miterlimit="10"/></g><g transform="translate(10,10) scale(1,1)"><g><path fill="none" stroke="none"/><text fill="#000000" stroke="none" font-family="Roboto" font-size="17px" font-style="normal" font-weight="normal" text-decoration="none" x="100.0537109375" y="285.5">Kiểm tra định dạng</text></g></g><g transform="translate(10,10) scale(1,1)"><g><path fill="none" stroke="none"/><text fill="#000000" stroke="none" font-family="Roboto" font-size="17px" font-style="normal" font-weight="bold" text-decoration="none" x="61" y="285.5">loop</text></g></g><g transform="translate(10,10) scale(1,1)"><g><path fill="none" stroke="none"/><text fill="#000000" stroke="none" font-family="Roboto" font-size="17px" font-style="normal" font-weight="normal" text-decoration="none" x="75.5" y="322.5">[Tất cả các trường đã được nhập]</text></g></g></g></svg>