<svg version="1.1" xmlns="http://www.w3.org/2000/svg" xmlns:xlink="http://www.w3.org/1999/xlink" width="1908" height="1228"><defs/><g><g transform="translate(10,10) scale(1,1)"><path fill="none" stroke="#000000" d="M 0 0 L 1888 0 L 1888 1208 L 0 1208 L 0 0" stroke-miterlimit="10"/></g><g transform="translate(10,10) scale(1,1)"><path fill="#ffffff" stroke="none" d="M 0 0 L 0 26 L 385.8994140625 26 L 398.8994140625 13 L 398.8994140625 0 L 0 0"/></g><g transform="translate(10,10) scale(1,1)"><path fill="none" stroke="#000000" d="M 0 0 L 0 26 L 385.8994140625 26 L 398.8994140625 13 L 398.8994140625 0 L 0 0 L 0 0" stroke-miterlimit="10"/></g><g transform="translate(10,10) scale(1,1)"><g><path fill="none" stroke="none"/><text fill="#000000" stroke="none" font-family="Roboto" font-size="17px" font-style="normal" font-weight="normal" text-decoration="none" x="91.384765625" y="21.5">SequenceDiagram-ThongKeVaBaoCao</text></g></g><g transform="translate(10,10) scale(1,1)"><g><path fill="none" stroke="none"/><text fill="#000000" stroke="none" font-family="Roboto" font-size="17px" font-style="normal" font-weight="bold" text-decoration="none" x="5" y="21.5">interaction</text></g></g><g transform="translate(10,10) scale(1,1)"><path fill="#ffffff" stroke="none" d="M 238.1685653409091 47.3 C 238.1685653409091 43.82060576 241.0469670630909 41 244.59765625 41 C 248.1483454369091 41 251.02674715909092 43.82060576 251.02674715909092 47.3 C 251.02674715909092 50.779394239999995 248.1483454369091 53.6 244.59765625 53.6 C 241.0469670630909 53.6 238.1685653409091 50.779394239999995 238.1685653409091 47.3 Z"/></g><g transform="translate(10,10) scale(1,1)"><path fill="none" stroke="#000000" d="M 238.1685653409091 47.3 C 238.1685653409091 43.82060576 241.0469670630909 41 244.59765625 41 C 248.1483454369091 41 251.02674715909092 43.82060576 251.02674715909092 47.3 C 251.02674715909092 50.779394239999995 248.1483454369091 53.6 244.59765625 53.6 C 241.0469670630909 53.6 238.1685653409091 50.779394239999995 238.1685653409091 47.3 Z" stroke-miterlimit="10"/></g><g transform="translate(10,10) scale(1,1)"><path fill="none" stroke="#000000" d="M 244.59765625 53.6 L 244.59765625 66.4" stroke-miterlimit="10"/></g><g transform="translate(10,10) scale(1,1)"><path fill="none" stroke="#000000" d="M 237.7903835227273 58.4 L 251.40492897727273 58.4" stroke-miterlimit="10"/></g><g transform="translate(10,10) scale(1,1)"><path fill="none" stroke="#000000" d="M 244.59765625 66.4 L 235.14311079545456 79" stroke-miterlimit="10"/></g><g transform="translate(10,10) scale(1,1)"><path fill="none" stroke="#000000" d="M 244.59765625 66.4 L 254.05220170454547 79" stroke-miterlimit="10"/></g><g transform="translate(10,10) scale(1,1)"><g><path fill="none" stroke="none"/><text fill="#000000" stroke="none" font-family="Roboto" font-size="17px" font-style="normal" font-weight="bold" text-decoration="none" x="194.228515625" y="103.5">: QuanTriVien</text></g></g><g transform="translate(10,10) scale(1,1)"><path fill="none" stroke="#000000" d="M 245.5 109 L 245.5 1176" stroke-miterlimit="10" stroke-dasharray="3"/></g><g transform="translate(10,10) scale(1,1)"><rect fill="#C0C0C0" stroke="none" x="551" y="47" width="103.69287109375" height="39" opacity="0.2"/></g><g transform="translate(10,10) scale(1,1)"><rect fill="#ffffff" stroke="none" x="544" y="40" width="103.69287109375" height="39"/></g><g transform="translate(10,10) scale(1,1)"><path fill="none" stroke="#000000" d="M 544 40 L 647.69287109375 40 L 647.69287109375 79 L 544 79 L 544 40 Z Z" stroke-miterlimit="10"/></g><g transform="translate(10,10) scale(1,1)"><g><path fill="none" stroke="none"/><text fill="#000000" stroke="none" font-family="Roboto" font-size="17px" font-style="normal" font-weight="bold" text-decoration="none" x="555.26806640625" y="63.5">TrinhDuyet</text></g></g><g transform="translate(10,10) scale(1,1)"><path fill="none" stroke="#000000" d="M 596.5 80 L 596.5 1176" stroke-miterlimit="10" stroke-dasharray="3"/></g><g transform="translate(10,10) scale(1,1)"><rect fill="#C0C0C0" stroke="none" x="871" y="47" width="281.8515625" height="39" opacity="0.2"/></g><g transform="translate(10,10) scale(1,1)"><rect fill="#ffffff" stroke="none" x="864" y="40" width="281.8515625" height="39"/></g><g transform="translate(10,10) scale(1,1)"><path fill="none" stroke="#000000" d="M 864 40 L 1145.8515625 40 L 1145.8515625 79 L 864 79 L 864 40 Z Z" stroke-miterlimit="10"/></g><g transform="translate(10,10) scale(1,1)"><g><path fill="none" stroke="none"/><text fill="#000000" stroke="none" font-family="Roboto" font-size="17px" font-style="normal" font-weight="bold" text-decoration="none" x="890.379150390625" y="63.5">: ThongKeVaBaoCaoController</text></g></g><g transform="translate(10,10) scale(1,1)"><path fill="none" stroke="#000000" d="M 1005.5 80 L 1005.5 1176" stroke-miterlimit="10" stroke-dasharray="3"/></g><g transform="translate(10,10) scale(1,1)"><rect fill="#C0C0C0" stroke="none" x="1311" y="47" width="141.0078125" height="39" opacity="0.2"/></g><g transform="translate(10,10) scale(1,1)"><rect fill="#ffffff" stroke="none" x="1304" y="40" width="141.0078125" height="39"/></g><g transform="translate(10,10) scale(1,1)"><path fill="none" stroke="#000000" d="M 1304 40 L 1445.0078125 40 L 1445.0078125 79 L 1304 79 L 1304 40 Z Z" stroke-miterlimit="10"/></g><g transform="translate(10,10) scale(1,1)"><g><path fill="none" stroke="none"/><text fill="#000000" stroke="none" font-family="Roboto" font-size="17px" font-style="normal" font-weight="bold" text-decoration="none" x="1343.595947265625" y="63.5">: DichVu</text></g></g><g transform="translate(10,10) scale(1,1)"><path fill="none" stroke="#000000" d="M 1375.5 80 L 1375.5 1176" stroke-miterlimit="10" stroke-dasharray="3"/></g><g transform="translate(10,10) scale(1,1)"><rect fill="#C0C0C0" stroke="none" x="1671" y="47" width="112.77392578125" height="39" opacity="0.2"/></g><g transform="translate(10,10) scale(1,1)"><rect fill="#ffffff" stroke="none" x="1664" y="40" width="112.77392578125" height="39"/></g><g transform="translate(10,10) scale(1,1)"><path fill="none" stroke="#000000" d="M 1664 40 L 1776.77392578125 40 L 1776.77392578125 79 L 1664 79 L 1664 40 Z Z" stroke-miterlimit="10"/></g><g transform="translate(10,10) scale(1,1)"><g><path fill="none" stroke="none"/><text fill="#000000" stroke="none" font-family="Roboto" font-size="17px" font-style="normal" font-weight="bold" text-decoration="none" x="1674.03125" y="63.5">CoSoDuLieu</text></g></g><g transform="translate(10,10) scale(1,1)"><path fill="none" stroke="#000000" d="M 1721.5 80 L 1721.5 1176" stroke-miterlimit="10" stroke-dasharray="3"/></g><g transform="translate(10,10) scale(1,1)"><path fill="none" stroke="#000000" d="M 245 160 L 589 160" stroke-miterlimit="10"/></g><g transform="translate(10,10) scale(1,1)"><path fill="#000000" stroke="none" d="M 578.8373251423759 164.209517756016 L 589 160 L 578.8373251423758 155.790482243984"/></g><g transform="translate(10,10) scale(1,1)"><path fill="none" stroke="#000000" d="M 578.8373251423759 164.209517756016 L 589 160 L 578.8373251423758 155.790482243984 L 578.8373251423759 164.209517756016" stroke-miterlimit="10"/></g><g transform="translate(10,10) scale(1,1)"><g><path fill="none" stroke="none"/><text fill="#000000" stroke="none" font-family="Roboto" font-size="17px" font-style="normal" font-weight="normal" text-decoration="none" x="285.5" y="149.5">1 : Nhấn vào [Thống kê và Báo cáo]</text></g></g><g transform="translate(10,10) scale(1,1)"><rect fill="#ffffff" stroke="none" x="589" y="160" width="13" height="72"/></g><g transform="translate(10,10) scale(1,1)"><path fill="none" stroke="#000000" d="M 589 160 L 602 160 L 602 232 L 589 232 L 589 160 Z Z" stroke-miterlimit="10"/></g><g transform="translate(10,10) scale(1,1)"><path fill="none" stroke="#000000" d="M 589 197 L 245 197" stroke-miterlimit="10" stroke-dasharray="3"/></g><g transform="translate(10,10) scale(1,1)"><path fill="none" stroke="#000000" d="M 255.16267485762415 192.790482243984 L 245 197 L 255.16267485762415 201.209517756016" stroke-miterlimit="10"/></g><g transform="translate(10,10) scale(1,1)"><g><path fill="none" stroke="none"/><text fill="#000000" stroke="none" font-family="Roboto" font-size="17px" font-style="normal" font-weight="normal" text-decoration="none" x="279.493408203125" y="223.5">2 : Hiện biểu đồ thống kê và báo cáo</text></g></g><g transform="translate(10,10) scale(1,1)"><path fill="none" stroke="#000000" d="M 245 321 L 589 321" stroke-miterlimit="10"/></g><g transform="translate(10,10) scale(1,1)"><path fill="#000000" stroke="none" d="M 578.8373251423759 325.209517756016 L 589 321 L 578.8373251423758 316.790482243984"/></g><g transform="translate(10,10) scale(1,1)"><path fill="none" stroke="#000000" d="M 578.8373251423759 325.209517756016 L 589 321 L 578.8373251423758 316.790482243984 L 578.8373251423759 325.209517756016" stroke-miterlimit="10"/></g><g transform="translate(10,10) scale(1,1)"><g><path fill="none" stroke="none"/><text fill="#000000" stroke="none" font-family="Roboto" font-size="17px" font-style="normal" font-weight="normal" text-decoration="none" x="311.5" y="312.5">3 : Chọn khoảng thời gian muốn xem</text></g></g><g transform="translate(10,10) scale(1,1)"><rect fill="#ffffff" stroke="none" x="589" y="321" width="13" height="319"/></g><g transform="translate(10,10) scale(1,1)"><path fill="none" stroke="#000000" d="M 589 321 L 602 321 L 602 640 L 589 640 L 589 321 Z Z" stroke-miterlimit="10"/></g><g transform="translate(10,10) scale(1,1)"><path fill="none" stroke="#000000" d="M 602 336 L 998 336" stroke-miterlimit="10"/></g><g transform="translate(10,10) scale(1,1)"><path fill="#000000" stroke="none" d="M 987.8373251423759 340.209517756016 L 998 336 L 987.8373251423758 331.790482243984"/></g><g transform="translate(10,10) scale(1,1)"><path fill="none" stroke="#000000" d="M 987.8373251423759 340.209517756016 L 998 336 L 987.8373251423758 331.790482243984 L 987.8373251423759 340.209517756016" stroke-miterlimit="10"/></g><g transform="translate(10,10) scale(1,1)"><g><path fill="none" stroke="none"/><text fill="#000000" stroke="none" font-family="Roboto" font-size="17px" font-style="normal" font-weight="normal" text-decoration="none" x="648.5" y="327.5">4 : Gửi yêu cầu xem danh thu theo tháng</text></g></g><g transform="translate(10,10) scale(1,1)"><rect fill="#ffffff" stroke="none" x="998" y="336" width="13" height="288"/></g><g transform="translate(10,10) scale(1,1)"><path fill="none" stroke="#000000" d="M 998 336 L 1011 336 L 1011 624 L 998 624 L 998 336 Z Z" stroke-miterlimit="10"/></g><g transform="translate(10,10) scale(1,1)"><path fill="none" stroke="#000000" d="M 1011 352 L 1368 352" stroke-miterlimit="10"/></g><g transform="translate(10,10) scale(1,1)"><path fill="#000000" stroke="none" d="M 1357.837325142376 356.209517756016 L 1368 352 L 1357.837325142376 347.790482243984"/></g><g transform="translate(10,10) scale(1,1)"><path fill="none" stroke="#000000" d="M 1357.837325142376 356.209517756016 L 1368 352 L 1357.837325142376 347.790482243984 L 1357.837325142376 356.209517756016" stroke-miterlimit="10"/></g><g transform="translate(10,10) scale(1,1)"><g><path fill="none" stroke="none"/><text fill="#000000" stroke="none" font-family="Roboto" font-size="17px" font-style="normal" font-weight="normal" text-decoration="none" x="1025.5" y="343.5">5 : Gọi phương thức DoanhThuTheoThang()</text></g></g><g transform="translate(10,10) scale(1,1)"><rect fill="#ffffff" stroke="none" x="1368" y="352" width="13" height="256"/></g><g transform="translate(10,10) scale(1,1)"><path fill="none" stroke="#000000" d="M 1368 352 L 1381 352 L 1381 608 L 1368 608 L 1368 352 Z Z" stroke-miterlimit="10"/></g><g transform="translate(10,10) scale(1,1)"><path fill="none" stroke="#000000" d="M 1381 373 L 1714 373" stroke-miterlimit="10"/></g><g transform="translate(10,10) scale(1,1)"><path fill="#000000" stroke="none" d="M 1703.837325142376 377.209517756016 L 1714 373 L 1703.837325142376 368.790482243984"/></g><g transform="translate(10,10) scale(1,1)"><path fill="none" stroke="#000000" d="M 1703.837325142376 377.209517756016 L 1714 373 L 1703.837325142376 368.790482243984 L 1703.837325142376 377.209517756016" stroke-miterlimit="10"/></g><g transform="translate(10,10) scale(1,1)"><g><path fill="none" stroke="none"/><text fill="#000000" stroke="none" font-family="Roboto" font-size="17px" font-style="normal" font-weight="normal" text-decoration="none" x="1461.5" y="360.5">6 : Truy xuất doanh thu</text></g></g><g transform="translate(10,10) scale(1,1)"><rect fill="#ffffff" stroke="none" x="1714" y="373" width="13" height="211"/></g><g transform="translate(10,10) scale(1,1)"><path fill="none" stroke="#000000" d="M 1714 373 L 1727 373 L 1727 584 L 1714 584 L 1714 373 Z Z" stroke-miterlimit="10"/></g><g transform="translate(10,10) scale(1,1)"><path fill="none" stroke="#000000" d="M 1714 424 L 1381 424" stroke-miterlimit="10" stroke-dasharray="3"/></g><g transform="translate(10,10) scale(1,1)"><path fill="none" stroke="#000000" d="M 1391.162674857624 419.790482243984 L 1381 424 L 1391.162674857624 428.209517756016" stroke-miterlimit="10"/></g><g transform="translate(10,10) scale(1,1)"><g><path fill="none" stroke="none"/><text fill="#000000" stroke="none" font-family="Roboto" font-size="17px" font-style="normal" font-weight="normal" text-decoration="none" x="1391.510009765625" y="455.5">7 : Không có doanh thu trong khoảng này</text></g></g><g transform="translate(10,10) scale(1,1)"><path fill="none" stroke="#000000" d="M 1368 442 L 1011 442" stroke-miterlimit="10" stroke-dasharray="3"/></g><g transform="translate(10,10) scale(1,1)"><path fill="none" stroke="#000000" d="M 1021.1626748576241 437.790482243984 L 1011 442 L 1021.1626748576241 446.209517756016" stroke-miterlimit="10"/></g><g transform="translate(10,10) scale(1,1)"><g><path fill="none" stroke="none"/><text fill="#000000" stroke="none" font-family="Roboto" font-size="17px" font-style="normal" font-weight="normal" text-decoration="none" x="1060.403076171875" y="471.5">8 : Không trả về kết quả doanh thu</text></g></g><g transform="translate(10,10) scale(1,1)"><path fill="none" stroke="#000000" d="M 998 464 L 602 464" stroke-miterlimit="10" stroke-dasharray="3"/></g><g transform="translate(10,10) scale(1,1)"><path fill="none" stroke="#000000" d="M 612.1626748576241 459.790482243984 L 602 464 L 612.1626748576241 468.209517756016" stroke-miterlimit="10"/></g><g transform="translate(10,10) scale(1,1)"><g><path fill="none" stroke="none"/><text fill="#000000" stroke="none" font-family="Roboto" font-size="17px" font-style="normal" font-weight="normal" text-decoration="none" x="670.138427734375" y="487.5">9 : Thông báo không thể thống kê</text></g></g><g transform="translate(10,10) scale(1,1)"><path fill="none" stroke="#000000" d="M 589 480 L 245 480" stroke-miterlimit="10" stroke-dasharray="3"/></g><g transform="translate(10,10) scale(1,1)"><path fill="none" stroke="#000000" d="M 255.16267485762415 475.790482243984 L 245 480 L 255.16267485762415 484.209517756016" stroke-miterlimit="10"/></g><g transform="translate(10,10) scale(1,1)"><g><path fill="none" stroke="none"/><text fill="#000000" stroke="none" font-family="Roboto" font-size="17px" font-style="normal" font-weight="normal" text-decoration="none" x="268.7470703125" y="503.5">10 : Hiện thông báo không thể thống kê</text></g></g><g transform="translate(10,10) scale(1,1)"><path fill="none" stroke="#000000" d="M 1714 552 L 1381 552" stroke-miterlimit="10" stroke-dasharray="3"/></g><g transform="translate(10,10) scale(1,1)"><path fill="none" stroke="#000000" d="M 1391.162674857624 547.790482243984 L 1381 552 L 1391.162674857624 556.209517756016" stroke-miterlimit="10"/></g><g transform="translate(10,10) scale(1,1)"><g><path fill="none" stroke="none"/><text fill="#000000" stroke="none" font-family="Roboto" font-size="17px" font-style="normal" font-weight="normal" text-decoration="none" x="1414.59912109375" y="582.5">11 : Thống kê doanh thu thành công</text></g></g><g transform="translate(10,10) scale(1,1)"><path fill="none" stroke="#000000" d="M 1368 570 L 1011 570" stroke-miterlimit="10" stroke-dasharray="3"/></g><g transform="translate(10,10) scale(1,1)"><path fill="none" stroke="#000000" d="M 1021.1626748576241 565.790482243984 L 1011 570 L 1021.1626748576241 574.209517756016" stroke-miterlimit="10"/></g><g transform="translate(10,10) scale(1,1)"><g><path fill="none" stroke="none"/><text fill="#000000" stroke="none" font-family="Roboto" font-size="17px" font-style="normal" font-weight="normal" text-decoration="none" x="1035.7470703125" y="599.5">12 : Trả về kết quả doanh thu theo tháng</text></g></g><g transform="translate(10,10) scale(1,1)"><path fill="none" stroke="#000000" d="M 998 585 L 602 585" stroke-miterlimit="10" stroke-dasharray="3"/></g><g transform="translate(10,10) scale(1,1)"><path fill="none" stroke="#000000" d="M 612.1626748576241 580.790482243984 L 602 585 L 612.1626748576241 589.209517756016" stroke-miterlimit="10"/></g><g transform="translate(10,10) scale(1,1)"><g><path fill="none" stroke="none"/><text fill="#000000" stroke="none" font-family="Roboto" font-size="17px" font-style="normal" font-weight="normal" text-decoration="none" x="628.7470703125" y="615.5">13 : Thông báo kết quả doanh thu theo tháng</text></g></g><g transform="translate(10,10) scale(1,1)"><path fill="none" stroke="#000000" d="M 589 605 L 245 605" stroke-miterlimit="10" stroke-dasharray="3"/></g><g transform="translate(10,10) scale(1,1)"><path fill="none" stroke="#000000" d="M 255.16267485762415 600.790482243984 L 245 605 L 255.16267485762415 609.209517756016" stroke-miterlimit="10"/></g><g transform="translate(10,10) scale(1,1)"><g><path fill="none" stroke="none"/><text fill="#000000" stroke="none" font-family="Roboto" font-size="17px" font-style="normal" font-weight="normal" text-decoration="none" x="270.7470703125" y="631.5">14 : Hiện kết quả doanh thu theo tháng</text></g></g><g transform="translate(10,10) scale(1,1)"><path fill="none" stroke="#000000" d="M 245 747 L 589 747" stroke-miterlimit="10"/></g><g transform="translate(10,10) scale(1,1)"><path fill="#000000" stroke="none" d="M 578.8373251423759 751.209517756016 L 589 747 L 578.8373251423758 742.790482243984"/></g><g transform="translate(10,10) scale(1,1)"><path fill="none" stroke="#000000" d="M 578.8373251423759 751.209517756016 L 589 747 L 578.8373251423758 742.790482243984 L 578.8373251423759 751.209517756016" stroke-miterlimit="10"/></g><g transform="translate(10,10) scale(1,1)"><g><path fill="none" stroke="none"/><text fill="#000000" stroke="none" font-family="Roboto" font-size="17px" font-style="normal" font-weight="normal" text-decoration="none" x="326.9423828125" y="736.5">15 : Nhập mã ISBN hoặc tên sách</text></g></g><g transform="translate(10,10) scale(1,1)"><rect fill="#ffffff" stroke="none" x="589" y="747" width="13" height="333"/></g><g transform="translate(10,10) scale(1,1)"><path fill="none" stroke="#000000" d="M 589 747 L 602 747 L 602 1080 L 589 1080 L 589 747 Z Z" stroke-miterlimit="10"/></g><g transform="translate(10,10) scale(1,1)"><path fill="none" stroke="#000000" d="M 602 766 L 998 766" stroke-miterlimit="10"/></g><g transform="translate(10,10) scale(1,1)"><path fill="#000000" stroke="none" d="M 987.8373251423759 770.209517756016 L 998 766 L 987.8373251423758 761.790482243984"/></g><g transform="translate(10,10) scale(1,1)"><path fill="none" stroke="#000000" d="M 987.8373251423759 770.209517756016 L 998 766 L 987.8373251423758 761.790482243984 L 987.8373251423759 770.209517756016" stroke-miterlimit="10"/></g><g transform="translate(10,10) scale(1,1)"><g><path fill="none" stroke="none"/><text fill="#000000" stroke="none" font-family="Roboto" font-size="17px" font-style="normal" font-weight="normal" text-decoration="none" x="629.5" y="758.5">16 : Gửi yêu cầu xem thống kê từng đầu sách</text></g></g><g transform="translate(10,10) scale(1,1)"><rect fill="#ffffff" stroke="none" x="998" y="766" width="13" height="298"/></g><g transform="translate(10,10) scale(1,1)"><path fill="none" stroke="#000000" d="M 998 766 L 1011 766 L 1011 1064 L 998 1064 L 998 766 Z Z" stroke-miterlimit="10"/></g><g transform="translate(10,10) scale(1,1)"><path fill="none" stroke="#000000" d="M 1011 784 L 1368 784" stroke-miterlimit="10"/></g><g transform="translate(10,10) scale(1,1)"><path fill="#000000" stroke="none" d="M 1357.837325142376 788.209517756016 L 1368 784 L 1357.837325142376 779.790482243984"/></g><g transform="translate(10,10) scale(1,1)"><path fill="none" stroke="#000000" d="M 1357.837325142376 788.209517756016 L 1368 784 L 1357.837325142376 779.790482243984 L 1357.837325142376 788.209517756016" stroke-miterlimit="10"/></g><g transform="translate(10,10) scale(1,1)"><g><path fill="none" stroke="none"/><text fill="#000000" stroke="none" font-family="Roboto" font-size="17px" font-style="normal" font-weight="normal" text-decoration="none" x="1037.5" y="775.5">17 : Gọi phương thức TanSuatDauSach()</text></g></g><g transform="translate(10,10) scale(1,1)"><rect fill="#ffffff" stroke="none" x="1368" y="784" width="13" height="264"/></g><g transform="translate(10,10) scale(1,1)"><path fill="none" stroke="#000000" d="M 1368 784 L 1381 784 L 1381 1048 L 1368 1048 L 1368 784 Z Z" stroke-miterlimit="10"/></g><g transform="translate(10,10) scale(1,1)"><path fill="none" stroke="#000000" d="M 1381 800 L 1714 800" stroke-miterlimit="10"/></g><g transform="translate(10,10) scale(1,1)"><path fill="#000000" stroke="none" d="M 1703.837325142376 804.209517756016 L 1714 800 L 1703.837325142376 795.790482243984"/></g><g transform="translate(10,10) scale(1,1)"><path fill="none" stroke="#000000" d="M 1703.837325142376 804.209517756016 L 1714 800 L 1703.837325142376 795.790482243984 L 1703.837325142376 804.209517756016" stroke-miterlimit="10"/></g><g transform="translate(10,10) scale(1,1)"><g><path fill="none" stroke="none"/><text fill="#000000" stroke="none" font-family="Roboto" font-size="17px" font-style="normal" font-weight="normal" text-decoration="none" x="1460.5" y="790.5">18 : Truy xuất thống kê</text></g></g><g transform="translate(10,10) scale(1,1)"><rect fill="#ffffff" stroke="none" x="1714" y="800" width="13" height="232"/></g><g transform="translate(10,10) scale(1,1)"><path fill="none" stroke="#000000" d="M 1714 800 L 1727 800 L 1727 1032 L 1714 1032 L 1714 800 Z Z" stroke-miterlimit="10"/></g><g transform="translate(10,10) scale(1,1)"><path fill="none" stroke="#000000" d="M 1714 855 L 1381 855" stroke-miterlimit="10" stroke-dasharray="3"/></g><g transform="translate(10,10) scale(1,1)"><path fill="none" stroke="#000000" d="M 1391.162674857624 850.790482243984 L 1381 855 L 1391.162674857624 859.209517756016" stroke-miterlimit="10"/></g><g transform="translate(10,10) scale(1,1)"><g><path fill="none" stroke="none"/><text fill="#000000" stroke="none" font-family="Roboto" font-size="17px" font-style="normal" font-weight="normal" text-decoration="none" x="1411.510009765625" y="886.5">19 : Không có thống kê cho đầu sách</text></g></g><g transform="translate(10,10) scale(1,1)"><path fill="none" stroke="#000000" d="M 1368 872 L 1011 872" stroke-miterlimit="10" stroke-dasharray="3"/></g><g transform="translate(10,10) scale(1,1)"><path fill="none" stroke="#000000" d="M 1021.1626748576241 867.790482243984 L 1011 872 L 1021.1626748576241 876.209517756016" stroke-miterlimit="10"/></g><g transform="translate(10,10) scale(1,1)"><g><path fill="none" stroke="none"/><text fill="#000000" stroke="none" font-family="Roboto" font-size="17px" font-style="normal" font-weight="normal" text-decoration="none" x="1055.215087890625" y="903.5">20 : Không trả về kết quả doanh thu</text></g></g><g transform="translate(10,10) scale(1,1)"><path fill="none" stroke="#000000" d="M 998 888 L 602 888" stroke-miterlimit="10" stroke-dasharray="3"/></g><g transform="translate(10,10) scale(1,1)"><path fill="none" stroke="#000000" d="M 612.1626748576241 883.790482243984 L 602 888 L 612.1626748576241 892.209517756016" stroke-miterlimit="10"/></g><g transform="translate(10,10) scale(1,1)"><g><path fill="none" stroke="none"/><text fill="#000000" stroke="none" font-family="Roboto" font-size="17px" font-style="normal" font-weight="normal" text-decoration="none" x="667.506103515625" y="919.5">21 : Thông báo không thể thống kê</text></g></g><g transform="translate(10,10) scale(1,1)"><path fill="none" stroke="#000000" d="M 589 906 L 245 906" stroke-miterlimit="10" stroke-dasharray="3"/></g><g transform="translate(10,10) scale(1,1)"><path fill="none" stroke="#000000" d="M 255.16267485762415 901.790482243984 L 245 906 L 255.16267485762415 910.209517756016" stroke-miterlimit="10"/></g><g transform="translate(10,10) scale(1,1)"><g><path fill="none" stroke="none"/><text fill="#000000" stroke="none" font-family="Roboto" font-size="17px" font-style="normal" font-weight="normal" text-decoration="none" x="268.52001953125" y="935.5">22 : Hiện thông báo không thể thống kê</text></g></g><g transform="translate(10,10) scale(1,1)"><path fill="none" stroke="#000000" d="M 1714 997 L 1381 997" stroke-miterlimit="10" stroke-dasharray="3"/></g><g transform="translate(10,10) scale(1,1)"><path fill="none" stroke="#000000" d="M 1391.162674857624 992.790482243984 L 1381 997 L 1391.162674857624 1001.209517756016" stroke-miterlimit="10"/></g><g transform="translate(10,10) scale(1,1)"><g><path fill="none" stroke="none"/><text fill="#000000" stroke="none" font-family="Roboto" font-size="17px" font-style="normal" font-weight="normal" text-decoration="none" x="1393.510009765625" y="1023.5">23 : Thống kê thành công theo đầu sách</text></g></g><g transform="translate(10,10) scale(1,1)"><path fill="none" stroke="#000000" d="M 1368 1012 L 1011 1012" stroke-miterlimit="10" stroke-dasharray="3"/></g><g transform="translate(10,10) scale(1,1)"><path fill="none" stroke="#000000" d="M 1021.1626748576241 1007.790482243984 L 1011 1012 L 1021.1626748576241 1016.209517756016" stroke-miterlimit="10"/></g><g transform="translate(10,10) scale(1,1)"><g><path fill="none" stroke="none"/><text fill="#000000" stroke="none" font-family="Roboto" font-size="17px" font-style="normal" font-weight="normal" text-decoration="none" x="1028.52001953125" y="1039.5">24 : Trả về kết quả thống kê theo đầu sách</text></g></g><g transform="translate(10,10) scale(1,1)"><path fill="none" stroke="#000000" d="M 998 1031 L 602 1031" stroke-miterlimit="10" stroke-dasharray="3"/></g><g transform="translate(10,10) scale(1,1)"><path fill="none" stroke="#000000" d="M 612.1626748576241 1026.7904822439841 L 602 1031 L 612.1626748576241 1035.2095177560159" stroke-miterlimit="10"/></g><g transform="translate(10,10) scale(1,1)"><g><path fill="none" stroke="none"/><text fill="#000000" stroke="none" font-family="Roboto" font-size="17px" font-style="normal" font-weight="normal" text-decoration="none" x="620.52001953125" y="1063.5">25 : Thông báo kết quả thống kê theo đầu sách</text></g></g><g transform="translate(10,10) scale(1,1)"><path fill="none" stroke="#000000" d="M 589 1051 L 245 1051" stroke-miterlimit="10" stroke-dasharray="3"/></g><g transform="translate(10,10) scale(1,1)"><path fill="none" stroke="#000000" d="M 255.16267485762415 1046.7904822439841 L 245 1051 L 255.16267485762415 1055.2095177560159" stroke-miterlimit="10"/></g><g transform="translate(10,10) scale(1,1)"><g><path fill="none" stroke="none"/><text fill="#000000" stroke="none" font-family="Roboto" font-size="17px" font-style="normal" font-weight="normal" text-decoration="none" x="261.52001953125" y="1079.5">26 : Hiện kết quả thống kê theo đầu sách</text></g></g><g transform="translate(10,10) scale(1,1)"><path fill="none" stroke="#000000" d="M 72 256 L 1832 256 L 1832 1136 L 72 1136 L 72 256" stroke-miterlimit="10"/></g><g transform="translate(10,10) scale(1,1)"><path fill="#ffffff" stroke="none" d="M 72 256 L 72 282 L 333.537109375 282 L 346.537109375 269 L 346.537109375 256 L 72 256"/></g><g transform="translate(10,10) scale(1,1)"><path fill="none" stroke="#000000" d="M 72 256 L 72 282 L 333.537109375 282 L 346.537109375 269 L 346.537109375 256 L 72 256 L 72 256" stroke-miterlimit="10"/></g><g transform="translate(10,10) scale(1,1)"><g><path fill="none" stroke="none"/><text fill="#000000" stroke="none" font-family="Roboto" font-size="17px" font-style="normal" font-weight="normal" text-decoration="none" x="101.92578125" y="277.5">Chọn loại thống kê và báo cáo</text></g></g><g transform="translate(10,10) scale(1,1)"><g><path fill="none" stroke="none"/><text fill="#000000" stroke="none" font-family="Roboto" font-size="17px" font-style="normal" font-weight="bold" text-decoration="none" x="77" y="277.5">alt</text></g></g><g transform="translate(10,10) scale(1,1)"><g><path fill="none" stroke="none"/><text fill="#000000" stroke="none" font-family="Roboto" font-size="17px" font-style="normal" font-weight="normal" text-decoration="none" x="91.5" y="314.5">[Xem doanh thu từng tháng]</text></g></g><g transform="translate(10,10) scale(1,1)"><path fill="none" stroke="#000000" d="M 72 697 L 1832 697" stroke-miterlimit="10" stroke-dasharray="10,3"/></g><g transform="translate(10,10) scale(1,1)"><g><path fill="none" stroke="none"/><text fill="#000000" stroke="none" font-family="Roboto" font-size="17px" font-style="normal" font-weight="normal" text-decoration="none" x="91.5" y="728.5">[Xem tần suất từng đầu sách]</text></g></g><g transform="translate(10,10) scale(1,1)"><path fill="none" stroke="#000000" d="M 144 400 L 1776 400 L 1776 657 L 144 657 L 144 400" stroke-miterlimit="10"/></g><g transform="translate(10,10) scale(1,1)"><path fill="#ffffff" stroke="none" d="M 144 400 L 144 426 L 416.6767578125 426 L 429.6767578125 413 L 429.6767578125 400 L 144 400"/></g><g transform="translate(10,10) scale(1,1)"><path fill="none" stroke="#000000" d="M 144 400 L 144 426 L 416.6767578125 426 L 429.6767578125 413 L 429.6767578125 400 L 144 400 L 144 400" stroke-miterlimit="10"/></g><g transform="translate(10,10) scale(1,1)"><g><path fill="none" stroke="none"/><text fill="#000000" stroke="none" font-family="Roboto" font-size="17px" font-style="normal" font-weight="normal" text-decoration="none" x="173.92578125" y="421.5">Thống kê hợp lệ theo doanh thu</text></g></g><g transform="translate(10,10) scale(1,1)"><g><path fill="none" stroke="none"/><text fill="#000000" stroke="none" font-family="Roboto" font-size="17px" font-style="normal" font-weight="bold" text-decoration="none" x="149" y="421.5">alt</text></g></g><g transform="translate(10,10) scale(1,1)"><g><path fill="none" stroke="none"/><text fill="#000000" stroke="none" font-family="Roboto" font-size="17px" font-style="normal" font-weight="normal" text-decoration="none" x="163.5" y="458.5">[Không có doanh thu để thống kê]</text></g></g><g transform="translate(10,10) scale(1,1)"><path fill="none" stroke="#000000" d="M 144 522 L 1776 522" stroke-miterlimit="10" stroke-dasharray="10,3"/></g><g transform="translate(10,10) scale(1,1)"><g><path fill="none" stroke="none"/><text fill="#000000" stroke="none" font-family="Roboto" font-size="17px" font-style="normal" font-weight="normal" text-decoration="none" x="163.5" y="553.5">[Có doanh thu để thống kê]</text></g></g><g transform="translate(10,10) scale(1,1)"><path fill="none" stroke="#000000" d="M 144 824 L 1776 824 L 1776 1105 L 144 1105 L 144 824" stroke-miterlimit="10"/></g><g transform="translate(10,10) scale(1,1)"><path fill="#ffffff" stroke="none" d="M 144 824 L 144 850 L 409.84521484375 850 L 422.84521484375 837 L 422.84521484375 824 L 144 824"/></g><g transform="translate(10,10) scale(1,1)"><path fill="none" stroke="#000000" d="M 144 824 L 144 850 L 409.84521484375 850 L 422.84521484375 837 L 422.84521484375 824 L 144 824 L 144 824" stroke-miterlimit="10"/></g><g transform="translate(10,10) scale(1,1)"><g><path fill="none" stroke="none"/><text fill="#000000" stroke="none" font-family="Roboto" font-size="17px" font-style="normal" font-weight="normal" text-decoration="none" x="173.92578125" y="845.5">Thống kê hợp lệ theo đầu sách</text></g></g><g transform="translate(10,10) scale(1,1)"><g><path fill="none" stroke="none"/><text fill="#000000" stroke="none" font-family="Roboto" font-size="17px" font-style="normal" font-weight="bold" text-decoration="none" x="149" y="845.5">alt</text></g></g><g transform="translate(10,10) scale(1,1)"><g><path fill="none" stroke="none"/><text fill="#000000" stroke="none" font-family="Roboto" font-size="17px" font-style="normal" font-weight="normal" text-decoration="none" x="163.5" y="882.5">[Không có thông tin]</text></g></g><g transform="translate(10,10) scale(1,1)"><path fill="none" stroke="#000000" d="M 144 962 L 1776 962" stroke-miterlimit="10" stroke-dasharray="10,3"/></g><g transform="translate(10,10) scale(1,1)"><g><path fill="none" stroke="none"/><text fill="#000000" stroke="none" font-family="Roboto" font-size="17px" font-style="normal" font-weight="normal" text-decoration="none" x="163.5" y="993.5">[Có doanh thu]</text></g></g></g></svg>