<svg version="1.1" xmlns="http://www.w3.org/2000/svg" xmlns:xlink="http://www.w3.org/1999/xlink" width="1988" height="1292"><defs/><g><g transform="translate(-30,-30) scale(1,1)"><rect fill="#ffffff" stroke="none" x="40" y="40" width="608" height="28"/></g><g transform="translate(-30,-30) scale(1,1)"><path fill="none" stroke="#000000" d="M 40 40 L 648 40 L 648 68 L 40 68 L 40 40 Z Z" stroke-miterlimit="10" stroke-width="2"/></g><g transform="translate(-30,-30) scale(1,1)"><path fill="none" stroke="#000000" d="M 40 1312 L 40 40 L 648 40 L 648 1312" stroke-miterlimit="10" stroke-width="2"/></g><g transform="translate(-30,-30) scale(1,1)"><g><path fill="none" stroke="none"/><text fill="#000000" stroke="none" font-family="Roboto" font-size="20px" font-style="normal" font-weight="normal" text-decoration="none" x="291.490234375" y="64">Khách hàng</text></g></g><g transform="translate(-30,-30) scale(1,1)"><path fill="none" stroke="#000000" d="M 344 91 L 344 136" stroke-miterlimit="10"/></g><g transform="translate(-30,-30) scale(1,1)"><path fill="none" stroke="#000000" d="M 339.790482243984 125.83732514237585 L 344 136 L 348.209517756016 125.83732514237585" stroke-miterlimit="10"/></g><g transform="translate(-30,-30) scale(1,1)"><path fill="#C0C0C0" stroke="none" d="M 343 88.5 C 343 83.2532944 347.2532944 79 352.5 79 C 357.7467056 79 362 83.2532944 362 88.5 C 362 93.7467056 357.7467056 98 352.5 98 C 347.2532944 98 343 93.7467056 343 88.5 Z" opacity="0.2"/></g><g transform="translate(-30,-30) scale(1,1)"><path fill="#000000" stroke="none" d="M 336 81.5 C 336 76.2532944 340.2532944 72 345.5 72 C 350.7467056 72 355 76.2532944 355 81.5 C 355 86.7467056 350.7467056 91 345.5 91 C 340.2532944 91 336 86.7467056 336 81.5 Z"/></g><g transform="translate(-30,-30) scale(1,1)"><path fill="#C0C0C0" stroke="none" d="M 257 143 L 435.53125 143 Q 445.53125 143 445.53125 153 L 445.53125 180 Q 445.53125 190 435.53125 190 L 257 190 Q 247 190 247 180 L 247 153 Q 247 143 257 143 Z" opacity="0.2"/></g><g transform="translate(-30,-30) scale(1,1)"><path fill="#ffffff" stroke="none" d="M 250 136 L 428.53125 136 Q 438.53125 136 438.53125 146 L 438.53125 173 Q 438.53125 183 428.53125 183 L 250 183 Q 240 183 240 173 L 240 146 Q 240 136 250 136 Z"/></g><g transform="translate(-30,-30) scale(1,1)"><path fill="none" stroke="#000000" d="M 250 136 L 428.53125 136 Q 438.53125 136 438.53125 146 L 438.53125 173 Q 438.53125 183 428.53125 183 L 250 183 Q 240 183 240 173 L 240 146 Q 240 136 250 136 Z" stroke-miterlimit="10"/></g><g transform="translate(-30,-30) scale(1,1)"><g><path fill="none" stroke="none"/><text fill="#000000" stroke="none" font-family="Roboto" font-size="20px" font-style="normal" font-weight="bold" text-decoration="none" x="245.8427734375" y="162.5">Truy cập vào website</text></g></g><g transform="translate(-30,-30) scale(1,1)"><rect fill="#ffffff" stroke="none" x="648" y="40" width="600" height="28"/></g><g transform="translate(-30,-30) scale(1,1)"><path fill="none" stroke="#000000" d="M 648 40 L 1248 40 L 1248 68 L 648 68 L 648 40 Z Z" stroke-miterlimit="10" stroke-width="2"/></g><g transform="translate(-30,-30) scale(1,1)"><path fill="none" stroke="#000000" d="M 648 1312 L 648 40 L 1248 40 L 1248 1312" stroke-miterlimit="10" stroke-width="2"/></g><g transform="translate(-30,-30) scale(1,1)"><g><path fill="none" stroke="none"/><text fill="#000000" stroke="none" font-family="Roboto" font-size="20px" font-style="normal" font-weight="normal" text-decoration="none" x="908.5078125" y="64">Giỏ hàng</text></g></g><g transform="translate(-30,-30) scale(1,1)"><rect fill="#ffffff" stroke="none" x="1248" y="40" width="408" height="28"/></g><g transform="translate(-30,-30) scale(1,1)"><path fill="none" stroke="#000000" d="M 1248 40 L 1656 40 L 1656 68 L 1248 68 L 1248 40 Z Z" stroke-miterlimit="10" stroke-width="2"/></g><g transform="translate(-30,-30) scale(1,1)"><path fill="none" stroke="#000000" d="M 1248 1312 L 1248 40 L 1656 40 L 1656 1312" stroke-miterlimit="10" stroke-width="2"/></g><g transform="translate(-30,-30) scale(1,1)"><g><path fill="none" stroke="none"/><text fill="#000000" stroke="none" font-family="Roboto" font-size="20px" font-style="normal" font-weight="normal" text-decoration="none" x="1408.4794921875" y="64">Controller</text></g></g><g transform="translate(-30,-30) scale(1,1)"><rect fill="#ffffff" stroke="none" x="1656" y="40" width="352" height="28"/></g><g transform="translate(-30,-30) scale(1,1)"><path fill="none" stroke="#000000" d="M 1656 40 L 2008 40 L 2008 68 L 1656 68 L 1656 40 Z Z" stroke-miterlimit="10" stroke-width="2"/></g><g transform="translate(-30,-30) scale(1,1)"><path fill="none" stroke="#000000" d="M 1656 1312 L 1656 40 L 2008 40 L 2008 1312" stroke-miterlimit="10" stroke-width="2"/></g><g transform="translate(-30,-30) scale(1,1)"><g><path fill="none" stroke="none"/><text fill="#000000" stroke="none" font-family="Roboto" font-size="20px" font-style="normal" font-weight="normal" text-decoration="none" x="1758.640625" y="64">Cổng thanh toán</text></g></g><g transform="translate(-30,-30) scale(1,1)"><path fill="none" stroke="#000000" d="M 344 183 L 344 240" stroke-miterlimit="10"/></g><g transform="translate(-30,-30) scale(1,1)"><path fill="none" stroke="#000000" d="M 339.790482243984 229.83732514237585 L 344 240 L 348.209517756016 229.83732514237585" stroke-miterlimit="10"/></g><g transform="translate(-30,-30) scale(1,1)"><path fill="#C0C0C0" stroke="none" d="M 289 247 L 409.865234375 247 Q 419.865234375 247 419.865234375 257 L 419.865234375 284 Q 419.865234375 294 409.865234375 294 L 289 294 Q 279 294 279 284 L 279 257 Q 279 247 289 247 Z" opacity="0.2"/></g><g transform="translate(-30,-30) scale(1,1)"><path fill="#ffffff" stroke="none" d="M 282 240 L 402.865234375 240 Q 412.865234375 240 412.865234375 250 L 412.865234375 277 Q 412.865234375 287 402.865234375 287 L 282 287 Q 272 287 272 277 L 272 250 Q 272 240 282 240 Z"/></g><g transform="translate(-30,-30) scale(1,1)"><path fill="none" stroke="#000000" d="M 282 240 L 402.865234375 240 Q 412.865234375 240 412.865234375 250 L 412.865234375 277 Q 412.865234375 287 402.865234375 287 L 282 287 Q 272 287 272 277 L 272 250 Q 272 240 282 240 Z" stroke-miterlimit="10"/></g><g transform="translate(-30,-30) scale(1,1)"><g><path fill="none" stroke="none"/><text fill="#000000" stroke="none" font-family="Roboto" font-size="20px" font-style="normal" font-weight="bold" text-decoration="none" x="277.3837890625" y="266.5">Tìm kiếm sách</text></g></g><g transform="translate(-30,-30) scale(1,1)"><path fill="#C0C0C0" stroke="none" d="M 905 295 L 1022.140625 295 Q 1032.140625 295 1032.140625 305 L 1032.140625 332 Q 1032.140625 342 1022.140625 342 L 905 342 Q 895 342 895 332 L 895 305 Q 895 295 905 295 Z" opacity="0.2"/></g><g transform="translate(-30,-30) scale(1,1)"><path fill="#ffffff" stroke="none" d="M 898 288 L 1015.140625 288 Q 1025.140625 288 1025.140625 298 L 1025.140625 325 Q 1025.140625 335 1015.140625 335 L 898 335 Q 888 335 888 325 L 888 298 Q 888 288 898 288 Z"/></g><g transform="translate(-30,-30) scale(1,1)"><path fill="none" stroke="#000000" d="M 898 288 L 1015.140625 288 Q 1025.140625 288 1025.140625 298 L 1025.140625 325 Q 1025.140625 335 1015.140625 335 L 898 335 Q 888 335 888 325 L 888 298 Q 888 288 898 288 Z" stroke-miterlimit="10"/></g><g transform="translate(-30,-30) scale(1,1)"><g><path fill="none" stroke="none"/><text fill="#000000" stroke="none" font-family="Roboto" font-size="20px" font-style="normal" font-weight="bold" text-decoration="none" x="895.5986328125" y="314.5">Xem giỏ hàng</text></g></g><g transform="translate(-30,-30) scale(1,1)"><path fill="none" stroke="#000000" d="M 952 416 L 848 416 M 848 416 A 8 8 0 0 0 840 424 L 840 472" stroke-miterlimit="10"/></g><g transform="translate(-30,-30) scale(1,1)"><path fill="none" stroke="#000000" d="M 835.790482243984 461.83732514237585 L 840 472 L 844.209517756016 461.83732514237585" stroke-miterlimit="10"/></g><g transform="translate(-30,-30) scale(1,1)"><g><path fill="none" stroke="none"/><text fill="#000000" stroke="none" font-family="Roboto" font-size="20px" font-style="normal" font-weight="normal" text-decoration="none" x="755.146484375" y="403.5">[cần xoá sản phẩm]</text></g></g><g transform="translate(-30,-30) scale(1,1)"><path fill="none" stroke="#000000" d="M 974 416 L 1096 416 M 1096 416 A 8 8 0 0 1 1104 424 L 1104 472" stroke-miterlimit="10"/></g><g transform="translate(-30,-30) scale(1,1)"><path fill="none" stroke="#000000" d="M 1099.7904822439841 461.83732514237585 L 1104 472 L 1108.2095177560159 461.83732514237585" stroke-miterlimit="10"/></g><g transform="translate(-30,-30) scale(1,1)"><g><path fill="none" stroke="none"/><text fill="#000000" stroke="none" font-family="Roboto" font-size="20px" font-style="normal" font-weight="normal" text-decoration="none" x="991.5" y="401.5">[cần cập nhật số lượng]</text></g></g><g transform="translate(-30,-30) scale(1,1)"><path fill="#C0C0C0" stroke="none" d="M 959 424.5 L 970.5 415 L 981 424.5 L 970.5 433 L 959 424.5" opacity="0.2"/></g><g transform="translate(-30,-30) scale(1,1)"><path fill="#ffffff" stroke="none" d="M 952 417 L 963 408 L 974 417 L 963 426 L 952 417"/></g><g transform="translate(-30,-30) scale(1,1)"><path fill="none" stroke="#000000" d="M 952 417 L 963 408 L 974 417 L 963 426 L 952 417 L 952 417" stroke-miterlimit="10"/></g><g transform="translate(-30,-30) scale(1,1)"><path fill="#C0C0C0" stroke="none" d="M 1033 479 L 1185.212890625 479 Q 1195.212890625 479 1195.212890625 489 L 1195.212890625 516 Q 1195.212890625 526 1185.212890625 526 L 1033 526 Q 1023 526 1023 516 L 1023 489 Q 1023 479 1033 479 Z" opacity="0.2"/></g><g transform="translate(-30,-30) scale(1,1)"><path fill="#ffffff" stroke="none" d="M 1026 472 L 1178.212890625 472 Q 1188.212890625 472 1188.212890625 482 L 1188.212890625 509 Q 1188.212890625 519 1178.212890625 519 L 1026 519 Q 1016 519 1016 509 L 1016 482 Q 1016 472 1026 472 Z"/></g><g transform="translate(-30,-30) scale(1,1)"><path fill="none" stroke="#000000" d="M 1026 472 L 1178.212890625 472 Q 1188.212890625 472 1188.212890625 482 L 1188.212890625 509 Q 1188.212890625 519 1178.212890625 519 L 1026 519 Q 1016 519 1016 509 L 1016 482 Q 1016 472 1026 472 Z" stroke-miterlimit="10"/></g><g transform="translate(-30,-30) scale(1,1)"><g><path fill="none" stroke="none"/><text fill="#000000" stroke="none" font-family="Roboto" font-size="20px" font-style="normal" font-weight="bold" text-decoration="none" x="1021.076171875" y="498.5">Cập nhật số lượng</text></g></g><g transform="translate(-30,-30) scale(1,1)"><path fill="#C0C0C0" stroke="none" d="M 225 1087 L 477.837890625 1087 Q 487.837890625 1087 487.837890625 1097 L 487.837890625 1124 Q 487.837890625 1134 477.837890625 1134 L 225 1134 Q 215 1134 215 1124 L 215 1097 Q 215 1087 225 1087 Z" opacity="0.2"/></g><g transform="translate(-30,-30) scale(1,1)"><path fill="#ffffff" stroke="none" d="M 218 1080 L 470.837890625 1080 Q 480.837890625 1080 480.837890625 1090 L 480.837890625 1117 Q 480.837890625 1127 470.837890625 1127 L 218 1127 Q 208 1127 208 1117 L 208 1090 Q 208 1080 218 1080 Z"/></g><g transform="translate(-30,-30) scale(1,1)"><path fill="none" stroke="#000000" d="M 218 1080 L 470.837890625 1080 Q 480.837890625 1080 480.837890625 1090 L 480.837890625 1117 Q 480.837890625 1127 470.837890625 1127 L 218 1127 Q 208 1127 208 1117 L 208 1090 Q 208 1080 218 1080 Z" stroke-miterlimit="10"/></g><g transform="translate(-30,-30) scale(1,1)"><g><path fill="none" stroke="none"/><text fill="#000000" stroke="none" font-family="Roboto" font-size="20px" font-style="normal" font-weight="bold" text-decoration="none" x="213.33984375" y="1106.5">Thêm sản phẩm vào giỏ hàng</text></g></g><g transform="translate(-30,-30) scale(1,1)"><path fill="none" stroke="#000000" d="M 344 287 L 344 344" stroke-miterlimit="10"/></g><g transform="translate(-30,-30) scale(1,1)"><path fill="none" stroke="#000000" d="M 339.790482243984 333.83732514237585 L 344 344 L 348.209517756016 333.83732514237585" stroke-miterlimit="10"/></g><g transform="translate(-30,-30) scale(1,1)"><path fill="#C0C0C0" stroke="none" d="M 335 360.5 L 346.5 351 L 357 360.5 L 346.5 369 L 335 360.5" opacity="0.2"/></g><g transform="translate(-30,-30) scale(1,1)"><path fill="#ffffff" stroke="none" d="M 328 353 L 339 344 L 350 353 L 339 362 L 328 353"/></g><g transform="translate(-30,-30) scale(1,1)"><path fill="none" stroke="#000000" d="M 328 353 L 339 344 L 350 353 L 339 362 L 328 353 L 328 353" stroke-miterlimit="10"/></g><g transform="translate(-30,-30) scale(1,1)"><path fill="#C0C0C0" stroke="none" d="M 511 416.5 L 522.5 407 L 533 416.5 L 522.5 425 L 511 416.5" opacity="0.2"/></g><g transform="translate(-30,-30) scale(1,1)"><path fill="#ffffff" stroke="none" d="M 504 409 L 515 400 L 526 409 L 515 418 L 504 409"/></g><g transform="translate(-30,-30) scale(1,1)"><path fill="none" stroke="#000000" d="M 504 409 L 515 400 L 526 409 L 515 418 L 504 409 L 504 409" stroke-miterlimit="10"/></g><g transform="translate(-30,-30) scale(1,1)"><path fill="#C0C0C0" stroke="none" d="M 129 487 L 311.69140625 487 Q 321.69140625 487 321.69140625 497 L 321.69140625 524 Q 321.69140625 534 311.69140625 534 L 129 534 Q 119 534 119 524 L 119 497 Q 119 487 129 487 Z" opacity="0.2"/></g><g transform="translate(-30,-30) scale(1,1)"><path fill="#ffffff" stroke="none" d="M 122 480 L 304.69140625 480 Q 314.69140625 480 314.69140625 490 L 314.69140625 517 Q 314.69140625 527 304.69140625 527 L 122 527 Q 112 527 112 517 L 112 490 Q 112 480 122 480 Z"/></g><g transform="translate(-30,-30) scale(1,1)"><path fill="none" stroke="#000000" d="M 122 480 L 304.69140625 480 Q 314.69140625 480 314.69140625 490 L 314.69140625 517 Q 314.69140625 527 304.69140625 527 L 122 527 Q 112 527 112 517 L 112 490 Q 112 480 122 480 Z" stroke-miterlimit="10"/></g><g transform="translate(-30,-30) scale(1,1)"><g><path fill="none" stroke="none"/><text fill="#000000" stroke="none" font-family="Roboto" font-size="20px" font-style="normal" font-weight="bold" text-decoration="none" x="117.3984375" y="506.5">Duyệt theo danh sách</text></g></g><g transform="translate(-30,-30) scale(1,1)"><path fill="#C0C0C0" stroke="none" d="M 457 487 L 576.46875 487 Q 586.46875 487 586.46875 497 L 586.46875 524 Q 586.46875 534 576.46875 534 L 457 534 Q 447 534 447 524 L 447 497 Q 447 487 457 487 Z" opacity="0.2"/></g><g transform="translate(-30,-30) scale(1,1)"><path fill="#ffffff" stroke="none" d="M 450 480 L 569.46875 480 Q 579.46875 480 579.46875 490 L 579.46875 517 Q 579.46875 527 569.46875 527 L 450 527 Q 440 527 440 517 L 440 490 Q 440 480 450 480 Z"/></g><g transform="translate(-30,-30) scale(1,1)"><path fill="none" stroke="#000000" d="M 450 480 L 569.46875 480 Q 579.46875 480 579.46875 490 L 579.46875 517 Q 579.46875 527 569.46875 527 L 450 527 Q 440 527 440 517 L 440 490 Q 440 480 450 480 Z" stroke-miterlimit="10"/></g><g transform="translate(-30,-30) scale(1,1)"><g><path fill="none" stroke="none"/><text fill="#000000" stroke="none" font-family="Roboto" font-size="20px" font-style="normal" font-weight="bold" text-decoration="none" x="445.623046875" y="506.5">Duyệt theo tên</text></g></g><g transform="translate(-30,-30) scale(1,1)"><path fill="#C0C0C0" stroke="none" d="M 207 416.5 L 218.5 407 L 229 416.5 L 218.5 425 L 207 416.5" opacity="0.2"/></g><g transform="translate(-30,-30) scale(1,1)"><path fill="#ffffff" stroke="none" d="M 200 409 L 211 400 L 222 409 L 211 418 L 200 409"/></g><g transform="translate(-30,-30) scale(1,1)"><path fill="none" stroke="#000000" d="M 200 409 L 211 400 L 222 409 L 211 418 L 200 409 L 200 409" stroke-miterlimit="10"/></g><g transform="translate(-30,-30) scale(1,1)"><path fill="none" stroke="#000000" d="M 515 527 L 515 584" stroke-miterlimit="10"/></g><g transform="translate(-30,-30) scale(1,1)"><path fill="none" stroke="#000000" d="M 510.790482243984 573.8373251423759 L 515 584 L 519.209517756016 573.8373251423759" stroke-miterlimit="10"/></g><g transform="translate(-30,-30) scale(1,1)"><path fill="none" stroke="#000000" d="M 515 602 L 515 656 M 515 656 A 8 8 0 0 1 507 664 L 350 664" stroke-miterlimit="10"/></g><g transform="translate(-30,-30) scale(1,1)"><path fill="none" stroke="#000000" d="M 360.16267485762415 659.790482243984 L 350 664 L 360.16267485762415 668.209517756016" stroke-miterlimit="10"/></g><g transform="translate(-30,-30) scale(1,1)"><g><path fill="none" stroke="none"/><text fill="#000000" stroke="none" font-family="Roboto" font-size="20px" font-style="normal" font-weight="normal" text-decoration="none" x="412.5" y="649.5">[tìm thấy]</text></g></g><g transform="translate(-30,-30) scale(1,1)"><path fill="none" stroke="#000000" d="M 216 527 L 216 657 M 216 657 A 8 8 0 0 0 224 665 L 328 665" stroke-miterlimit="10"/></g><g transform="translate(-30,-30) scale(1,1)"><path fill="none" stroke="#000000" d="M 317.83732514237585 669.209517756016 L 328 665 L 317.83732514237585 660.790482243984" stroke-miterlimit="10"/></g><g transform="translate(-30,-30) scale(1,1)"><path fill="none" stroke="#000000" d="M 350 1001 L 600 1001 M 600 1001 A 8 8 0 0 0 608 993 L 608 416 M 608 416 A 8 8 0 0 0 600 408 L 526 408" stroke-miterlimit="10"/></g><g transform="translate(-30,-30) scale(1,1)"><path fill="none" stroke="#000000" d="M 536.1626748576241 403.790482243984 L 526 408 L 536.1626748576241 412.209517756016" stroke-miterlimit="10"/></g><g transform="translate(-30,-30) scale(1,1)"><g><path fill="none" stroke="none"/><text fill="#000000" stroke="none" font-family="Roboto" font-size="20px" font-style="normal" font-weight="normal" text-decoration="none" x="366.5" y="986.5">[tiếp tục nhập tên sách]</text></g></g><g transform="translate(-30,-30) scale(1,1)"><path fill="none" stroke="#000000" d="M 328 1001 L 88 1001 M 88 1001 A 8 8 0 0 1 80 993 L 80 416 M 80 416 A 8 8 0 0 1 88 408 L 200 408" stroke-miterlimit="10"/></g><g transform="translate(-30,-30) scale(1,1)"><path fill="none" stroke="#000000" d="M 189.83732514237585 412.209517756016 L 200 408 L 189.83732514237585 403.790482243984" stroke-miterlimit="10"/></g><g transform="translate(-30,-30) scale(1,1)"><g><path fill="none" stroke="none"/><text fill="#000000" stroke="none" font-family="Roboto" font-size="20px" font-style="normal" font-weight="normal" text-decoration="none" x="95.5" y="985.5">[tiếp tục duyệt danh sách]</text></g></g><g transform="translate(-30,-30) scale(1,1)"><path fill="#C0C0C0" stroke="none" d="M 511 600.5 L 522.5 591 L 533 600.5 L 522.5 609 L 511 600.5" opacity="0.2"/></g><g transform="translate(-30,-30) scale(1,1)"><path fill="#ffffff" stroke="none" d="M 504 593 L 515 584 L 526 593 L 515 602 L 504 593"/></g><g transform="translate(-30,-30) scale(1,1)"><path fill="none" stroke="#000000" d="M 504 593 L 515 584 L 526 593 L 515 602 L 504 593 L 504 593" stroke-miterlimit="10"/></g><g transform="translate(-30,-30) scale(1,1)"><path fill="#C0C0C0" stroke="none" d="M 335 672.5 L 346.5 663 L 357 672.5 L 346.5 681 L 335 672.5" opacity="0.2"/></g><g transform="translate(-30,-30) scale(1,1)"><path fill="#ffffff" stroke="none" d="M 328 665 L 339 656 L 350 665 L 339 674 L 328 665"/></g><g transform="translate(-30,-30) scale(1,1)"><path fill="none" stroke="#000000" d="M 328 665 L 339 656 L 350 665 L 339 674 L 328 665 L 328 665" stroke-miterlimit="10"/></g><g transform="translate(-30,-30) scale(1,1)"><path fill="#C0C0C0" stroke="none" d="M 335 1008.5 L 346.5 999 L 357 1008.5 L 346.5 1017 L 335 1008.5" opacity="0.2"/></g><g transform="translate(-30,-30) scale(1,1)"><path fill="#ffffff" stroke="none" d="M 328 1001 L 339 992 L 350 1001 L 339 1010 L 328 1001"/></g><g transform="translate(-30,-30) scale(1,1)"><path fill="none" stroke="#000000" d="M 328 1001 L 339 992 L 350 1001 L 339 1010 L 328 1001 L 328 1001" stroke-miterlimit="10"/></g><g transform="translate(-30,-30) scale(1,1)"><path fill="none" stroke="#000000" d="M 512 418 L 512 480" stroke-miterlimit="10"/></g><g transform="translate(-30,-30) scale(1,1)"><path fill="none" stroke="#000000" d="M 507.790482243984 469.83732514237585 L 512 480 L 516.209517756016 469.83732514237585" stroke-miterlimit="10"/></g><g transform="translate(-30,-30) scale(1,1)"><path fill="none" stroke="#000000" d="M 216 418 L 216 480" stroke-miterlimit="10"/></g><g transform="translate(-30,-30) scale(1,1)"><path fill="none" stroke="#000000" d="M 211.790482243984 469.83732514237585 L 216 480 L 220.209517756016 469.83732514237585" stroke-miterlimit="10"/></g><g transform="translate(-30,-30) scale(1,1)"><path fill="none" stroke="#000000" d="M 328 353 L 219 353 M 219 353 A 8 8 0 0 0 211 361 L 211 400" stroke-miterlimit="10"/></g><g transform="translate(-30,-30) scale(1,1)"><path fill="none" stroke="#000000" d="M 206.790482243984 389.83732514237585 L 211 400 L 215.209517756016 389.83732514237585" stroke-miterlimit="10"/></g><g transform="translate(-30,-30) scale(1,1)"><g><path fill="none" stroke="none"/><text fill="#000000" stroke="none" font-family="Roboto" font-size="20px" font-style="normal" font-weight="normal" text-decoration="none" x="109.5" y="344.5">[duyệt trong danh sách]</text></g></g><g transform="translate(-30,-30) scale(1,1)"><path fill="none" stroke="#000000" d="M 350 353 L 504 353 M 504 353 A 8 8 0 0 1 512 361 L 512 400" stroke-miterlimit="10"/></g><g transform="translate(-30,-30) scale(1,1)"><path fill="none" stroke="#000000" d="M 507.790482243984 389.83732514237585 L 512 400 L 516.209517756016 389.83732514237585" stroke-miterlimit="10"/></g><g transform="translate(-30,-30) scale(1,1)"><g><path fill="none" stroke="none"/><text fill="#000000" stroke="none" font-family="Roboto" font-size="20px" font-style="normal" font-weight="normal" text-decoration="none" x="367.5" y="345.5">[nhập tên sách]</text></g></g><g transform="translate(-30,-30) scale(1,1)"><path fill="none" stroke="#000000" d="M 504 593 L 347 593 M 347 593 A 8 8 0 0 1 339 585 L 339 362" stroke-miterlimit="10"/></g><g transform="translate(-30,-30) scale(1,1)"><path fill="none" stroke="#000000" d="M 343.209517756016 372.16267485762415 L 339 362 L 334.790482243984 372.16267485762415" stroke-miterlimit="10"/></g><g transform="translate(-30,-30) scale(1,1)"><g><path fill="none" stroke="none"/><text fill="#000000" stroke="none" font-family="Roboto" font-size="20px" font-style="normal" font-weight="normal" text-decoration="none" x="349.5" y="583.5">[không tìm thấy]</text></g></g><g transform="translate(-30,-30) scale(1,1)"><path fill="none" stroke="#000000" d="M 344 1010 L 344 1080" stroke-miterlimit="10"/></g><g transform="translate(-30,-30) scale(1,1)"><path fill="none" stroke="#000000" d="M 339.790482243984 1069.837325142376 L 344 1080 L 348.209517756016 1069.837325142376" stroke-miterlimit="10"/></g><g transform="translate(-30,-30) scale(1,1)"><g><path fill="none" stroke="none"/><text fill="#000000" stroke="none" font-family="Roboto" font-size="20px" font-style="normal" font-weight="normal" text-decoration="none" x="165.5" y="1057.5">[đưa ra quyết định]</text></g></g><g transform="translate(-30,-30) scale(1,1)"><path fill="#C0C0C0" stroke="none" d="M 1433 119 L 1555.896484375 119 Q 1565.896484375 119 1565.896484375 129 L 1565.896484375 156 Q 1565.896484375 166 1555.896484375 166 L 1433 166 Q 1423 166 1423 156 L 1423 129 Q 1423 119 1433 119 Z" opacity="0.2"/></g><g transform="translate(-30,-30) scale(1,1)"><path fill="#ffffff" stroke="none" d="M 1426 112 L 1548.896484375 112 Q 1558.896484375 112 1558.896484375 122 L 1558.896484375 149 Q 1558.896484375 159 1548.896484375 159 L 1426 159 Q 1416 159 1416 149 L 1416 122 Q 1416 112 1426 112 Z"/></g><g transform="translate(-30,-30) scale(1,1)"><path fill="none" stroke="#000000" d="M 1426 112 L 1548.896484375 112 Q 1558.896484375 112 1558.896484375 122 L 1558.896484375 149 Q 1558.896484375 159 1548.896484375 159 L 1426 159 Q 1416 159 1416 149 L 1416 122 Q 1416 112 1426 112 Z" stroke-miterlimit="10"/></g><g transform="translate(-30,-30) scale(1,1)"><g><path fill="none" stroke="none"/><text fill="#000000" stroke="none" font-family="Roboto" font-size="20px" font-style="normal" font-weight="bold" text-decoration="none" x="1421.41796875" y="138.5">Xử lý đơn hàng</text></g></g><g transform="translate(-30,-30) scale(1,1)"><path fill="#C0C0C0" stroke="none" d="M 959 208.5 L 970.5 199 L 981 208.5 L 970.5 217 L 959 208.5" opacity="0.2"/></g><g transform="translate(-30,-30) scale(1,1)"><path fill="#ffffff" stroke="none" d="M 952 201 L 963 192 L 974 201 L 963 210 L 952 201"/></g><g transform="translate(-30,-30) scale(1,1)"><path fill="none" stroke="#000000" d="M 952 201 L 963 192 L 974 201 L 963 210 L 952 201 L 952 201" stroke-miterlimit="10"/></g><g transform="translate(-30,-30) scale(1,1)"><path fill="none" stroke="#000000" d="M 481 1087 L 696 1087 M 696 1087 A 8 8 0 0 0 704 1079 L 704 209 M 704 209 A 8 8 0 0 1 712 201 L 952 201" stroke-miterlimit="10"/></g><g transform="translate(-30,-30) scale(1,1)"><path fill="none" stroke="#000000" d="M 941.8373251423759 205.209517756016 L 952 201 L 941.8373251423758 196.790482243984" stroke-miterlimit="10"/></g><g transform="translate(-30,-30) scale(1,1)"><path fill="#C0C0C0" stroke="none" d="M 265 1231 L 429.654296875 1231 Q 439.654296875 1231 439.654296875 1241 L 439.654296875 1268 Q 439.654296875 1278 429.654296875 1278 L 265 1278 Q 255 1278 255 1268 L 255 1241 Q 255 1231 265 1231 Z" opacity="0.2"/></g><g transform="translate(-30,-30) scale(1,1)"><path fill="#ffffff" stroke="none" d="M 258 1224 L 422.654296875 1224 Q 432.654296875 1224 432.654296875 1234 L 432.654296875 1261 Q 432.654296875 1271 422.654296875 1271 L 258 1271 Q 248 1271 248 1261 L 248 1234 Q 248 1224 258 1224 Z"/></g><g transform="translate(-30,-30) scale(1,1)"><path fill="none" stroke="#000000" d="M 258 1224 L 422.654296875 1224 Q 432.654296875 1224 432.654296875 1234 L 432.654296875 1261 Q 432.654296875 1271 422.654296875 1271 L 258 1271 Q 248 1271 248 1261 L 248 1234 Q 248 1224 258 1224 Z" stroke-miterlimit="10"/></g><g transform="translate(-30,-30) scale(1,1)"><g><path fill="none" stroke="none"/><text fill="#000000" stroke="none" font-family="Roboto" font-size="20px" font-style="normal" font-weight="bold" text-decoration="none" x="253.10546875" y="1250.5">Bấm nút thanh toán</text></g></g><g transform="translate(-30,-30) scale(1,1)"><path fill="none" stroke="#000000" d="M 960 192 L 960 128 M 960 128 A 8 8 0 0 0 952 120 L 680 120 M 680 120 A 8 8 0 0 0 672 128 L 672 255 M 672 255 A 8 8 0 0 1 664 263 L 413 263" stroke-miterlimit="10"/></g><g transform="translate(-30,-30) scale(1,1)"><path fill="none" stroke="#000000" d="M 423.16267485762415 258.790482243984 L 413 263 L 423.16267485762415 267.209517756016" stroke-miterlimit="10"/></g><g transform="translate(-30,-30) scale(1,1)"><g><path fill="none" stroke="none"/><text fill="#000000" stroke="none" font-family="Roboto" font-size="20px" font-style="normal" font-weight="normal" text-decoration="none" x="774.5" y="106.5">[tiếp tục mua hàng]</text></g></g><g transform="translate(-30,-30) scale(1,1)"><path fill="none" stroke="#000000" d="M 960 426 L 960 1160 M 960 1160 A 8 8 0 0 1 952 1168 L 352 1168 M 352 1168 A 8 8 0 0 0 344 1176 L 344 1224" stroke-miterlimit="10"/></g><g transform="translate(-30,-30) scale(1,1)"><path fill="none" stroke="#000000" d="M 339.790482243984 1213.837325142376 L 344 1224 L 348.209517756016 1213.837325142376" stroke-miterlimit="10"/></g><g transform="translate(-30,-30) scale(1,1)"><path fill="none" stroke="#000000" d="M 433 1248 L 1288 1248 M 1288 1248 A 8 8 0 0 0 1296 1240 L 1296 143 M 1296 143 A 8 8 0 0 1 1304 135 L 1416 135" stroke-miterlimit="10"/></g><g transform="translate(-30,-30) scale(1,1)"><path fill="none" stroke="#000000" d="M 1405.837325142376 139.209517756016 L 1416 135 L 1405.837325142376 130.790482243984" stroke-miterlimit="10"/></g><g transform="translate(-30,-30) scale(1,1)"><path fill="#C0C0C0" stroke="none" d="M 1417 239 L 1580.82421875 239 Q 1590.82421875 239 1590.82421875 249 L 1590.82421875 276 Q 1590.82421875 286 1580.82421875 286 L 1417 286 Q 1407 286 1407 276 L 1407 249 Q 1407 239 1417 239 Z" opacity="0.2"/></g><g transform="translate(-30,-30) scale(1,1)"><path fill="#ffffff" stroke="none" d="M 1410 232 L 1573.82421875 232 Q 1583.82421875 232 1583.82421875 242 L 1583.82421875 269 Q 1583.82421875 279 1573.82421875 279 L 1410 279 Q 1400 279 1400 269 L 1400 242 Q 1400 232 1410 232 Z"/></g><g transform="translate(-30,-30) scale(1,1)"><path fill="none" stroke="#000000" d="M 1410 232 L 1573.82421875 232 Q 1583.82421875 232 1583.82421875 242 L 1583.82421875 269 Q 1583.82421875 279 1573.82421875 279 L 1410 279 Q 1400 279 1400 269 L 1400 242 Q 1400 232 1410 232 Z" stroke-miterlimit="10"/></g><g transform="translate(-30,-30) scale(1,1)"><g><path fill="none" stroke="none"/><text fill="#000000" stroke="none" font-family="Roboto" font-size="20px" font-style="normal" font-weight="bold" text-decoration="none" x="1405.4033203125" y="258.5">Kiểm tra đăng nhập</text></g></g><g transform="translate(-30,-30) scale(1,1)"><path fill="none" stroke="#000000" d="M 1488 159 L 1488 232" stroke-miterlimit="10"/></g><g transform="translate(-30,-30) scale(1,1)"><path fill="none" stroke="#000000" d="M 1483.7904822439841 221.83732514237585 L 1488 232 L 1492.2095177560159 221.83732514237585" stroke-miterlimit="10"/></g><g transform="translate(-30,-30) scale(1,1)"><path fill="none" stroke="#000000" d="M 1488 279 L 1488 336" stroke-miterlimit="10"/></g><g transform="translate(-30,-30) scale(1,1)"><path fill="none" stroke="#000000" d="M 1483.7904822439841 325.83732514237585 L 1488 336 L 1492.2095177560159 325.83732514237585" stroke-miterlimit="10"/></g><g transform="translate(-30,-30) scale(1,1)"><path fill="none" stroke="#000000" d="M 1502 348 L 1800 348" stroke-miterlimit="10"/></g><g transform="translate(-30,-30) scale(1,1)"><path fill="none" stroke="#000000" d="M 1789.837325142376 352.209517756016 L 1800 348 L 1789.837325142376 343.790482243984" stroke-miterlimit="10"/></g><g transform="translate(-30,-30) scale(1,1)"><g><path fill="none" stroke="none"/><text fill="#000000" stroke="none" font-family="Roboto" font-size="20px" font-style="normal" font-weight="normal" text-decoration="none" x="1521.5" y="337.5">[thành công]</text></g></g><g transform="translate(-30,-30) scale(1,1)"><path fill="#C0C0C0" stroke="none" d="M 1817 335 L 1981.146484375 335 Q 1991.146484375 335 1991.146484375 345 L 1991.146484375 372 Q 1991.146484375 382 1981.146484375 382 L 1817 382 Q 1807 382 1807 372 L 1807 345 Q 1807 335 1817 335 Z" opacity="0.2"/></g><g transform="translate(-30,-30) scale(1,1)"><path fill="#ffffff" stroke="none" d="M 1810 328 L 1974.146484375 328 Q 1984.146484375 328 1984.146484375 338 L 1984.146484375 365 Q 1984.146484375 375 1974.146484375 375 L 1810 375 Q 1800 375 1800 365 L 1800 338 Q 1800 328 1810 328 Z"/></g><g transform="translate(-30,-30) scale(1,1)"><path fill="none" stroke="#000000" d="M 1810 328 L 1974.146484375 328 Q 1984.146484375 328 1984.146484375 338 L 1984.146484375 365 Q 1984.146484375 375 1974.146484375 375 L 1810 375 Q 1800 375 1800 365 L 1800 338 Q 1800 328 1810 328 Z" stroke-miterlimit="10"/></g><g transform="translate(-30,-30) scale(1,1)"><g><path fill="none" stroke="none"/><text fill="#000000" stroke="none" font-family="Roboto" font-size="20px" font-style="normal" font-weight="bold" text-decoration="none" x="1805.4814453125" y="354.5">Thực thi thanh toán</text></g></g><g transform="translate(-30,-30) scale(1,1)"><path fill="#C0C0C0" stroke="none" d="M 1487 352.5 L 1498.5 343 L 1509 352.5 L 1498.5 361 L 1487 352.5" opacity="0.2"/></g><g transform="translate(-30,-30) scale(1,1)"><path fill="#ffffff" stroke="none" d="M 1480 345 L 1491 336 L 1502 345 L 1491 354 L 1480 345"/></g><g transform="translate(-30,-30) scale(1,1)"><path fill="none" stroke="#000000" d="M 1480 345 L 1491 336 L 1502 345 L 1491 354 L 1480 345 L 1480 345" stroke-miterlimit="10"/></g><g transform="translate(-30,-30) scale(1,1)"><path fill="none" stroke="#000000" d="M 1480 345 L 1352 345 M 1352 345 A 8 8 0 0 0 1344 353 L 1344 440 M 1344 440 A 8 8 0 0 0 1352 448 L 1480 448" stroke-miterlimit="10"/></g><g transform="translate(-30,-30) scale(1,1)"><path fill="none" stroke="#000000" d="M 1469.837325142376 452.209517756016 L 1480 448 L 1469.837325142376 443.790482243984" stroke-miterlimit="10"/></g><g transform="translate(-30,-30) scale(1,1)"><g><path fill="none" stroke="none"/><text fill="#000000" stroke="none" font-family="Roboto" font-size="20px" font-style="normal" font-weight="normal" text-decoration="none" x="1375.5" y="338.5">[thất bại]</text></g></g><g transform="translate(-30,-30) scale(1,1)"><path fill="none" stroke="#000000" d="M 1890 375 L 1890 440" stroke-miterlimit="10"/></g><g transform="translate(-30,-30) scale(1,1)"><path fill="none" stroke="#000000" d="M 1885.7904822439841 429.83732514237585 L 1890 440 L 1894.2095177560159 429.83732514237585" stroke-miterlimit="10"/></g><g transform="translate(-30,-30) scale(1,1)"><path fill="none" stroke="#000000" d="M 1888 458 L 1888 559 M 1888 559 A 8 8 0 0 1 1880 567 L 1569 567" stroke-miterlimit="10"/></g><g transform="translate(-30,-30) scale(1,1)"><path fill="none" stroke="#000000" d="M 1579.162674857624 562.790482243984 L 1569 567 L 1579.162674857624 571.209517756016" stroke-miterlimit="10"/></g><g transform="translate(-30,-30) scale(1,1)"><g><path fill="none" stroke="none"/><text fill="#000000" stroke="none" font-family="Roboto" font-size="20px" font-style="normal" font-weight="normal" text-decoration="none" x="1666.5" y="561.5">[thanh toán thành công]</text></g></g><g transform="translate(-30,-30) scale(1,1)"><path fill="#C0C0C0" stroke="none" d="M 1887 456.5 L 1898.5 447 L 1909 456.5 L 1898.5 465 L 1887 456.5" opacity="0.2"/></g><g transform="translate(-30,-30) scale(1,1)"><path fill="#ffffff" stroke="none" d="M 1880 449 L 1891 440 L 1902 449 L 1891 458 L 1880 449"/></g><g transform="translate(-30,-30) scale(1,1)"><path fill="none" stroke="#000000" d="M 1880 449 L 1891 440 L 1902 449 L 1891 458 L 1880 449 L 1880 449" stroke-miterlimit="10"/></g><g transform="translate(-30,-30) scale(1,1)"><path fill="none" stroke="#000000" d="M 1880 448 L 1505 448" stroke-miterlimit="10"/></g><g transform="translate(-30,-30) scale(1,1)"><path fill="none" stroke="#000000" d="M 1515.162674857624 443.790482243984 L 1505 448 L 1515.162674857624 452.209517756016" stroke-miterlimit="10"/></g><g transform="translate(-30,-30) scale(1,1)"><g><path fill="none" stroke="none"/><text fill="#000000" stroke="none" font-family="Roboto" font-size="20px" font-style="normal" font-weight="normal" text-decoration="none" x="1695.5" y="442.5">[thanh toán thất bại]</text></g></g><g transform="translate(-30,-30) scale(1,1)"><path fill="#C0C0C0" stroke="none" d="M 1409 551 L 1566.291015625 551 Q 1576.291015625 551 1576.291015625 561 L 1576.291015625 588 Q 1576.291015625 598 1566.291015625 598 L 1409 598 Q 1399 598 1399 588 L 1399 561 Q 1399 551 1409 551 Z" opacity="0.2"/></g><g transform="translate(-30,-30) scale(1,1)"><path fill="#ffffff" stroke="none" d="M 1402 544 L 1559.291015625 544 Q 1569.291015625 544 1569.291015625 554 L 1569.291015625 581 Q 1569.291015625 591 1559.291015625 591 L 1402 591 Q 1392 591 1392 581 L 1392 554 Q 1392 544 1402 544 Z"/></g><g transform="translate(-30,-30) scale(1,1)"><path fill="none" stroke="#000000" d="M 1402 544 L 1559.291015625 544 Q 1569.291015625 544 1569.291015625 554 L 1569.291015625 581 Q 1569.291015625 591 1559.291015625 591 L 1402 591 Q 1392 591 1392 581 L 1392 554 Q 1392 544 1402 544 Z" stroke-miterlimit="10"/></g><g transform="translate(-30,-30) scale(1,1)"><g><path fill="none" stroke="none"/><text fill="#000000" stroke="none" font-family="Roboto" font-size="20px" font-style="normal" font-weight="bold" text-decoration="none" x="1397.3984375" y="570.5">Ghi nhận đơn hàng</text></g></g><g transform="translate(-30,-30) scale(1,1)"><path fill="none" stroke="#000000" d="M 1480 591 L 1480 699" stroke-miterlimit="10"/></g><g transform="translate(-30,-30) scale(1,1)"><path fill="none" stroke="#000000" d="M 1475.7904822439841 688.8373251423759 L 1480 699 L 1484.2095177560159 688.8373251423759" stroke-miterlimit="10"/></g><g transform="translate(-30,-30) scale(1,1)"><path fill="#C0C0C0" stroke="none" d="M 1458 706 L 1521 706 Q 1524 706 1524 709 L 1524 708 Q 1524 711 1521 711 L 1458 711 Q 1455 711 1455 708 L 1455 709 Q 1455 706 1458 706 Z" opacity="0.2"/></g><g transform="translate(-30,-30) scale(1,1)"><path fill="#000000" stroke="none" d="M 1451 699 L 1514 699 Q 1517 699 1517 702 L 1517 702 Q 1517 705 1514 705 L 1451 705 Q 1448 705 1448 702 L 1448 702 Q 1448 699 1451 699 Z"/></g><g transform="translate(-30,-30) scale(1,1)"><path fill="#C0C0C0" stroke="none" d="M 1561 807 L 1635.556640625 807 Q 1645.556640625 807 1645.556640625 817 L 1645.556640625 844 Q 1645.556640625 854 1635.556640625 854 L 1561 854 Q 1551 854 1551 844 L 1551 817 Q 1551 807 1561 807 Z" opacity="0.2"/></g><g transform="translate(-30,-30) scale(1,1)"><path fill="#ffffff" stroke="none" d="M 1554 800 L 1628.556640625 800 Q 1638.556640625 800 1638.556640625 810 L 1638.556640625 837 Q 1638.556640625 847 1628.556640625 847 L 1554 847 Q 1544 847 1544 837 L 1544 810 Q 1544 800 1554 800 Z"/></g><g transform="translate(-30,-30) scale(1,1)"><path fill="none" stroke="#000000" d="M 1554 800 L 1628.556640625 800 Q 1638.556640625 800 1638.556640625 810 L 1638.556640625 837 Q 1638.556640625 847 1628.556640625 847 L 1554 847 Q 1544 847 1544 837 L 1544 810 Q 1544 800 1554 800 Z" stroke-miterlimit="10"/></g><g transform="translate(-30,-30) scale(1,1)"><g><path fill="none" stroke="none"/><text fill="#000000" stroke="none" font-family="Roboto" font-size="20px" font-style="normal" font-weight="bold" text-decoration="none" x="1549.0224609375" y="826.5">Gửi email</text></g></g><g transform="translate(-30,-30) scale(1,1)"><path fill="none" stroke="#000000" d="M 1368 847 L 1368 880 M 1368 880 A 8 8 0 0 0 1376 888 L 1464 888 M 1464 888 A 8 8 0 0 1 1472 896 L 1472 920" stroke-miterlimit="10"/></g><g transform="translate(-30,-30) scale(1,1)"><path fill="none" stroke="#000000" d="M 1467.7904822439841 909.8373251423759 L 1472 920 L 1476.2095177560159 909.8373251423759" stroke-miterlimit="10"/></g><g transform="translate(-30,-30) scale(1,1)"><path fill="none" stroke="#000000" d="M 1592 847 L 1592 880 M 1592 880 A 8 8 0 0 1 1584 888 L 1496 888 M 1496 888 A 8 8 0 0 0 1488 896 L 1488 920" stroke-miterlimit="10"/></g><g transform="translate(-30,-30) scale(1,1)"><path fill="none" stroke="#000000" d="M 1483.7904822439841 909.8373251423759 L 1488 920 L 1492.2095177560159 909.8373251423759" stroke-miterlimit="10"/></g><g transform="translate(-30,-30) scale(1,1)"><path fill="#C0C0C0" stroke="none" d="M 785 479 L 901.1875 479 Q 911.1875 479 911.1875 489 L 911.1875 516 Q 911.1875 526 901.1875 526 L 785 526 Q 775 526 775 516 L 775 489 Q 775 479 785 479 Z" opacity="0.2"/></g><g transform="translate(-30,-30) scale(1,1)"><path fill="#ffffff" stroke="none" d="M 778 472 L 894.1875 472 Q 904.1875 472 904.1875 482 L 904.1875 509 Q 904.1875 519 894.1875 519 L 778 519 Q 768 519 768 509 L 768 482 Q 768 472 778 472 Z"/></g><g transform="translate(-30,-30) scale(1,1)"><path fill="none" stroke="#000000" d="M 778 472 L 894.1875 472 Q 904.1875 472 904.1875 482 L 904.1875 509 Q 904.1875 519 894.1875 519 L 778 519 Q 768 519 768 509 L 768 482 Q 768 472 778 472 Z" stroke-miterlimit="10"/></g><g transform="translate(-30,-30) scale(1,1)"><g><path fill="none" stroke="none"/><text fill="#000000" stroke="none" font-family="Roboto" font-size="20px" font-style="normal" font-weight="bold" text-decoration="none" x="772.3974609375" y="498.5">Xoá sản phẩm</text></g></g><g transform="translate(-30,-30) scale(1,1)"><path fill="#C0C0C0" stroke="none" d="M 1487 459.5 C 1487 452.59644 1492.59644 447 1499.5 447 C 1506.40356 447 1512 452.59644 1512 459.5 C 1512 466.40356 1506.40356 472 1499.5 472 C 1492.59644 472 1487 466.40356 1487 459.5 Z" opacity="0.2"/></g><g transform="translate(-30,-30) scale(1,1)"><path fill="none" stroke="#000000" d="M 1480 452.5 C 1480 445.59644 1485.59644 440 1492.5 440 C 1499.40356 440 1505 445.59644 1505 452.5 C 1505 459.40356 1499.40356 465 1492.5 465 C 1485.59644 465 1480 459.40356 1480 452.5 Z" stroke-miterlimit="10"/></g><g transform="translate(-30,-30) scale(1,1)"><path fill="#000000" stroke="none" d="M 1485 452.5 C 1485 448.357864 1488.357864 445 1492.5 445 C 1496.642136 445 1500 448.357864 1500 452.5 C 1500 456.642136 1496.642136 460 1492.5 460 C 1488.357864 460 1485 456.642136 1485 452.5 Z"/></g><g transform="translate(-30,-30) scale(1,1)"><path fill="#C0C0C0" stroke="none" d="M 1329 807 L 1427.82421875 807 Q 1437.82421875 807 1437.82421875 817 L 1437.82421875 844 Q 1437.82421875 854 1427.82421875 854 L 1329 854 Q 1319 854 1319 844 L 1319 817 Q 1319 807 1329 807 Z" opacity="0.2"/></g><g transform="translate(-30,-30) scale(1,1)"><path fill="#ffffff" stroke="none" d="M 1322 800 L 1420.82421875 800 Q 1430.82421875 800 1430.82421875 810 L 1430.82421875 837 Q 1430.82421875 847 1420.82421875 847 L 1322 847 Q 1312 847 1312 837 L 1312 810 Q 1312 800 1322 800 Z"/></g><g transform="translate(-30,-30) scale(1,1)"><path fill="none" stroke="#000000" d="M 1322 800 L 1420.82421875 800 Q 1430.82421875 800 1430.82421875 810 L 1430.82421875 837 Q 1430.82421875 847 1420.82421875 847 L 1322 847 Q 1312 847 1312 837 L 1312 810 Q 1312 800 1322 800 Z" stroke-miterlimit="10"/></g><g transform="translate(-30,-30) scale(1,1)"><g><path fill="none" stroke="none"/><text fill="#000000" stroke="none" font-family="Roboto" font-size="20px" font-style="normal" font-weight="bold" text-decoration="none" x="1317.8427734375" y="826.5">Gửi tin nhắn</text></g></g><g transform="translate(-30,-30) scale(1,1)"><path fill="none" stroke="#000000" d="M 1472 704 L 1472 744 M 1472 744 A 8 8 0 0 1 1464 752 L 1379 752 M 1379 752 A 8 8 0 0 0 1371 760 L 1371 800" stroke-miterlimit="10"/></g><g transform="translate(-30,-30) scale(1,1)"><path fill="none" stroke="#000000" d="M 1366.7904822439841 789.8373251423759 L 1371 800 L 1375.2095177560159 789.8373251423759" stroke-miterlimit="10"/></g><g transform="translate(-30,-30) scale(1,1)"><path fill="none" stroke="#000000" d="M 1488 704 L 1488 744 M 1488 744 A 8 8 0 0 0 1496 752 L 1584 752 M 1584 752 A 8 8 0 0 1 1592 760 L 1592 800" stroke-miterlimit="10"/></g><g transform="translate(-30,-30) scale(1,1)"><path fill="none" stroke="#000000" d="M 1587.7904822439841 789.8373251423759 L 1592 800 L 1596.2095177560159 789.8373251423759" stroke-miterlimit="10"/></g><g transform="translate(-30,-30) scale(1,1)"><path fill="#C0C0C0" stroke="none" d="M 1458 927 L 1521 927 Q 1524 927 1524 930 L 1524 929 Q 1524 932 1521 932 L 1458 932 Q 1455 932 1455 929 L 1455 930 Q 1455 927 1458 927 Z" opacity="0.2"/></g><g transform="translate(-30,-30) scale(1,1)"><path fill="#000000" stroke="none" d="M 1451 920 L 1514 920 Q 1517 920 1517 923 L 1517 923 Q 1517 926 1514 926 L 1451 926 Q 1448 926 1448 923 L 1448 923 Q 1448 920 1451 920 Z"/></g><g transform="translate(-30,-30) scale(1,1)"><path fill="#C0C0C0" stroke="none" d="M 1471 1027.5 C 1471 1020.59644 1476.59644 1015 1483.5 1015 C 1490.40356 1015 1496 1020.59644 1496 1027.5 C 1496 1034.40356 1490.40356 1040 1483.5 1040 C 1476.59644 1040 1471 1034.40356 1471 1027.5 Z" opacity="0.2"/></g><g transform="translate(-30,-30) scale(1,1)"><path fill="none" stroke="#000000" d="M 1464 1020.5 C 1464 1013.59644 1469.59644 1008 1476.5 1008 C 1483.40356 1008 1489 1013.59644 1489 1020.5 C 1489 1027.40356 1483.40356 1033 1476.5 1033 C 1469.59644 1033 1464 1027.40356 1464 1020.5 Z" stroke-miterlimit="10"/></g><g transform="translate(-30,-30) scale(1,1)"><path fill="#000000" stroke="none" d="M 1469 1020.5 C 1469 1016.357864 1472.357864 1013 1476.5 1013 C 1480.642136 1013 1484 1016.357864 1484 1020.5 C 1484 1024.642136 1480.642136 1028 1476.5 1028 C 1472.357864 1028 1469 1024.642136 1469 1020.5 Z"/></g><g transform="translate(-30,-30) scale(1,1)"><path fill="none" stroke="#000000" d="M 1480 925 L 1480 1008" stroke-miterlimit="10"/></g><g transform="translate(-30,-30) scale(1,1)"><path fill="none" stroke="#000000" d="M 1475.7904822439841 997.8373251423759 L 1480 1008 L 1484.2095177560159 997.8373251423759" stroke-miterlimit="10"/></g><g transform="translate(-30,-30) scale(1,1)"><path fill="none" stroke="#000000" d="M 963 210 L 963 288" stroke-miterlimit="10"/></g><g transform="translate(-30,-30) scale(1,1)"><path fill="none" stroke="#000000" d="M 958.790482243984 277.83732514237585 L 963 288 L 967.209517756016 277.83732514237585" stroke-miterlimit="10"/></g><g transform="translate(-30,-30) scale(1,1)"><g><path fill="none" stroke="none"/><text fill="#000000" stroke="none" font-family="Roboto" font-size="20px" font-style="normal" font-weight="normal" text-decoration="none" x="974.5" y="242.5">[đi đến giỏ hàng]</text></g></g><g transform="translate(-30,-30) scale(1,1)"><path fill="none" stroke="#000000" d="M 836 519 L 836 624" stroke-miterlimit="10"/></g><g transform="translate(-30,-30) scale(1,1)"><path fill="none" stroke="#000000" d="M 831.790482243984 613.8373251423759 L 836 624 L 840.209517756016 613.8373251423759" stroke-miterlimit="10"/></g><g transform="translate(-30,-30) scale(1,1)"><path fill="#C0C0C0" stroke="none" d="M 785 631 L 893.951171875 631 Q 903.951171875 631 903.951171875 641 L 903.951171875 668 Q 903.951171875 678 893.951171875 678 L 785 678 Q 775 678 775 668 L 775 641 Q 775 631 785 631 Z" opacity="0.2"/></g><g transform="translate(-30,-30) scale(1,1)"><path fill="#ffffff" stroke="none" d="M 778 624 L 886.951171875 624 Q 896.951171875 624 896.951171875 634 L 896.951171875 661 Q 896.951171875 671 886.951171875 671 L 778 671 Q 768 671 768 661 L 768 634 Q 768 624 778 624 Z"/></g><g transform="translate(-30,-30) scale(1,1)"><path fill="none" stroke="#000000" d="M 778 624 L 886.951171875 624 Q 896.951171875 624 896.951171875 634 L 896.951171875 661 Q 896.951171875 671 886.951171875 671 L 778 671 Q 768 671 768 661 L 768 634 Q 768 624 778 624 Z" stroke-miterlimit="10"/></g><g transform="translate(-30,-30) scale(1,1)"><g><path fill="none" stroke="none"/><text fill="#000000" stroke="none" font-family="Roboto" font-size="20px" font-style="normal" font-weight="bold" text-decoration="none" x="772.59765625" y="650.5">Xác nhận xoá</text></g></g><g transform="translate(-30,-30) scale(1,1)"><path fill="none" stroke="#000000" d="M 1102 519 L 1102 624" stroke-miterlimit="10"/></g><g transform="translate(-30,-30) scale(1,1)"><path fill="none" stroke="#000000" d="M 1097.7904822439841 613.8373251423759 L 1102 624 L 1106.2095177560159 613.8373251423759" stroke-miterlimit="10"/></g><g transform="translate(-30,-30) scale(1,1)"><path fill="#C0C0C0" stroke="none" d="M 1049 631 L 1168.5859375 631 Q 1178.5859375 631 1178.5859375 641 L 1178.5859375 668 Q 1178.5859375 678 1168.5859375 678 L 1049 678 Q 1039 678 1039 668 L 1039 641 Q 1039 631 1049 631 Z" opacity="0.2"/></g><g transform="translate(-30,-30) scale(1,1)"><path fill="#ffffff" stroke="none" d="M 1042 624 L 1161.5859375 624 Q 1171.5859375 624 1171.5859375 634 L 1171.5859375 661 Q 1171.5859375 671 1161.5859375 671 L 1042 671 Q 1032 671 1032 661 L 1032 634 Q 1032 624 1042 624 Z"/></g><g transform="translate(-30,-30) scale(1,1)"><path fill="none" stroke="#000000" d="M 1042 624 L 1161.5859375 624 Q 1171.5859375 624 1171.5859375 634 L 1171.5859375 661 Q 1171.5859375 671 1161.5859375 671 L 1042 671 Q 1032 671 1032 661 L 1032 634 Q 1032 624 1042 624 Z" stroke-miterlimit="10"/></g><g transform="translate(-30,-30) scale(1,1)"><g><path fill="none" stroke="none"/><text fill="#000000" stroke="none" font-family="Roboto" font-size="20px" font-style="normal" font-weight="bold" text-decoration="none" x="1036.841796875" y="650.5">Nhập số lượng</text></g></g><g transform="translate(-30,-30) scale(1,1)"><path fill="none" stroke="#000000" d="M 768 647 L 744 647 M 744 647 A 8 8 0 0 1 736 639 L 736 320 M 736 320 A 8 8 0 0 1 744 312 L 888 312" stroke-miterlimit="10"/></g><g transform="translate(-30,-30) scale(1,1)"><path fill="none" stroke="#000000" d="M 877.8373251423759 316.209517756016 L 888 312 L 877.8373251423758 307.790482243984" stroke-miterlimit="10"/></g><g transform="translate(-30,-30) scale(1,1)"><path fill="none" stroke="#000000" d="M 1172 647 L 1208 647 M 1208 647 A 8 8 0 0 0 1216 639 L 1216 320 M 1216 320 A 8 8 0 0 0 1208 312 L 1025 312" stroke-miterlimit="10"/></g><g transform="translate(-30,-30) scale(1,1)"><path fill="none" stroke="#000000" d="M 1035.162674857624 307.790482243984 L 1025 312 L 1035.162674857624 316.209517756016" stroke-miterlimit="10"/></g><g transform="translate(-30,-30) scale(1,1)"><path fill="#C0C0C0" stroke="none" d="M 335 752.5 L 346.5 743 L 357 752.5 L 346.5 761 L 335 752.5" opacity="0.2"/></g><g transform="translate(-30,-30) scale(1,1)"><path fill="#ffffff" stroke="none" d="M 328 745 L 339 736 L 350 745 L 339 754 L 328 745"/></g><g transform="translate(-30,-30) scale(1,1)"><path fill="none" stroke="#000000" d="M 328 745 L 339 736 L 350 745 L 339 754 L 328 745 L 328 745" stroke-miterlimit="10"/></g><g transform="translate(-30,-30) scale(1,1)"><path fill="none" stroke="#000000" d="M 339 674 L 339 736" stroke-miterlimit="10"/></g><g transform="translate(-30,-30) scale(1,1)"><path fill="none" stroke="#000000" d="M 334.790482243984 725.8373251423759 L 339 736 L 343.209517756016 725.8373251423759" stroke-miterlimit="10"/></g><g transform="translate(-30,-30) scale(1,1)"><path fill="#C0C0C0" stroke="none" d="M 129 823 L 335.744140625 823 Q 345.744140625 823 345.744140625 833 L 345.744140625 860 Q 345.744140625 870 335.744140625 870 L 129 870 Q 119 870 119 860 L 119 833 Q 119 823 129 823 Z" opacity="0.2"/></g><g transform="translate(-30,-30) scale(1,1)"><path fill="#ffffff" stroke="none" d="M 122 816 L 328.744140625 816 Q 338.744140625 816 338.744140625 826 L 338.744140625 853 Q 338.744140625 863 328.744140625 863 L 122 863 Q 112 863 112 853 L 112 826 Q 112 816 122 816 Z"/></g><g transform="translate(-30,-30) scale(1,1)"><path fill="none" stroke="#000000" d="M 122 816 L 328.744140625 816 Q 338.744140625 816 338.744140625 826 L 338.744140625 853 Q 338.744140625 863 328.744140625 863 L 122 863 Q 112 863 112 853 L 112 826 Q 112 816 122 816 Z" stroke-miterlimit="10"/></g><g transform="translate(-30,-30) scale(1,1)"><g><path fill="none" stroke="none"/><text fill="#000000" stroke="none" font-family="Roboto" font-size="20px" font-style="normal" font-weight="bold" text-decoration="none" x="117.857421875" y="842.5">Sử dụng bộ lọc tìm kiếm</text></g></g><g transform="translate(-30,-30) scale(1,1)"><path fill="#C0C0C0" stroke="none" d="M 385 823 L 573.74609375 823 Q 583.74609375 823 583.74609375 833 L 583.74609375 860 Q 583.74609375 870 573.74609375 870 L 385 870 Q 375 870 375 860 L 375 833 Q 375 823 385 823 Z" opacity="0.2"/></g><g transform="translate(-30,-30) scale(1,1)"><path fill="#ffffff" stroke="none" d="M 378 816 L 566.74609375 816 Q 576.74609375 816 576.74609375 826 L 576.74609375 853 Q 576.74609375 863 566.74609375 863 L 378 863 Q 368 863 368 853 L 368 826 Q 368 816 378 816 Z"/></g><g transform="translate(-30,-30) scale(1,1)"><path fill="none" stroke="#000000" d="M 378 816 L 566.74609375 816 Q 576.74609375 816 576.74609375 826 L 576.74609375 853 Q 576.74609375 863 566.74609375 863 L 378 863 Q 368 863 368 853 L 368 826 Q 368 816 378 816 Z" stroke-miterlimit="10"/></g><g transform="translate(-30,-30) scale(1,1)"><g><path fill="none" stroke="none"/><text fill="#000000" stroke="none" font-family="Roboto" font-size="20px" font-style="normal" font-weight="bold" text-decoration="none" x="373.4033203125" y="842.5">Xem chi tiết sản phẩm</text></g></g><g transform="translate(-30,-30) scale(1,1)"><path fill="none" stroke="#000000" d="M 328 744 L 232 744 M 232 744 A 8 8 0 0 0 224 752 L 224 816" stroke-miterlimit="10"/></g><g transform="translate(-30,-30) scale(1,1)"><path fill="none" stroke="#000000" d="M 219.790482243984 805.8373251423759 L 224 816 L 228.209517756016 805.8373251423759" stroke-miterlimit="10"/></g><g transform="translate(-30,-30) scale(1,1)"><g><path fill="none" stroke="none"/><text fill="#000000" stroke="none" font-family="Roboto" font-size="20px" font-style="normal" font-weight="normal" text-decoration="none" x="174.5" y="729.5">[cần lọc kết quả]</text></g></g><g transform="translate(-30,-30) scale(1,1)"><path fill="none" stroke="#000000" d="M 350 744 L 464 744 M 464 744 A 8 8 0 0 1 472 752 L 472 816" stroke-miterlimit="10"/></g><g transform="translate(-30,-30) scale(1,1)"><path fill="none" stroke="#000000" d="M 467.790482243984 805.8373251423759 L 472 816 L 476.209517756016 805.8373251423759" stroke-miterlimit="10"/></g><g transform="translate(-30,-30) scale(1,1)"><g><path fill="none" stroke="none"/><text fill="#000000" stroke="none" font-family="Roboto" font-size="20px" font-style="normal" font-weight="normal" text-decoration="none" x="351.5" y="728.5">[cần xem chi tiết sản phẩm]</text></g></g><g transform="translate(-30,-30) scale(1,1)"><path fill="#C0C0C0" stroke="none" d="M 335 936.5 L 346.5 927 L 357 936.5 L 346.5 945 L 335 936.5" opacity="0.2"/></g><g transform="translate(-30,-30) scale(1,1)"><path fill="#ffffff" stroke="none" d="M 328 929 L 339 920 L 350 929 L 339 938 L 328 929"/></g><g transform="translate(-30,-30) scale(1,1)"><path fill="none" stroke="#000000" d="M 328 929 L 339 920 L 350 929 L 339 938 L 328 929 L 328 929" stroke-miterlimit="10"/></g><g transform="translate(-30,-30) scale(1,1)"><path fill="none" stroke="#000000" d="M 224 863 L 224 920 M 224 920 A 8 8 0 0 0 232 928 L 328 928" stroke-miterlimit="10"/></g><g transform="translate(-30,-30) scale(1,1)"><path fill="none" stroke="#000000" d="M 317.83732514237585 932.209517756016 L 328 928 L 317.83732514237585 923.790482243984" stroke-miterlimit="10"/></g><g transform="translate(-30,-30) scale(1,1)"><path fill="none" stroke="#000000" d="M 472 863 L 472 920 M 472 920 A 8 8 0 0 1 464 928 L 350 928" stroke-miterlimit="10"/></g><g transform="translate(-30,-30) scale(1,1)"><path fill="none" stroke="#000000" d="M 360.16267485762415 923.790482243984 L 350 928 L 360.16267485762415 932.209517756016" stroke-miterlimit="10"/></g><g transform="translate(-30,-30) scale(1,1)"><path fill="none" stroke="#000000" d="M 339 938 L 339 992" stroke-miterlimit="10"/></g><g transform="translate(-30,-30) scale(1,1)"><path fill="none" stroke="#000000" d="M 334.790482243984 981.8373251423759 L 339 992 L 343.209517756016 981.8373251423759" stroke-miterlimit="10"/></g><g transform="translate(-30,-30) scale(1,1)"><path fill="none" stroke="#000000" d="M 958 335 L 958 408" stroke-miterlimit="10"/></g><g transform="translate(-30,-30) scale(1,1)"><path fill="none" stroke="#000000" d="M 953.790482243984 397.83732514237585 L 958 408 L 962.209517756016 397.83732514237585" stroke-miterlimit="10"/></g></g></svg>